<?xml version="1.0" encoding="utf-8"?>
<!-- Generator: Adobe Illustrator 28.0.0, SVG Export Plug-In . SVG Version: 6.00 Build 0)  -->
<svg version="1.1" id="ASU_LOGO" xmlns="http://www.w3.org/2000/svg" xmlns:xlink="http://www.w3.org/1999/xlink" x="0px" y="0px"
	 width="379.42px" height="153.227px" viewBox="0 0 379.42 153.227" enable-background="new 0 0 379.42 153.227"
	 xml:space="preserve">
<g>
	<path fill="#FFFFFF" d="M175.229,74.434h-5.89l-8.38,22.59h6.01l1.12-3.61h8.32l1.12,3.61h6.02L175.229,74.434z M169.41,89.344
		c0.51-1.69,1.37-4.35,1.85-6.04c0.32-1.15,0.64-2.34,0.93-3.49l2.94,9.53H169.41z"/>
	<path fill="#FFFFFF" d="M189.605,82.053c1.088-0.928,2.272-1.664,4.832-1.919v4.352l-1.632,0.256
		c-2.367,0.416-3.072,0.768-3.072,2.88v9.407h-4.927V80.294h4.799V82.053L189.605,82.053z"/>
	<path fill="#FFFFFF" d="M196.13,80.294v16.73h4.87v-16.73H196.13z M196.13,74.404v3.81h4.87v-3.81H196.13z"/>
	<polygon fill="#FFFFFF" points="204.005,80.326 218.308,80.326 218.308,84.101 209.413,93.189 218.308,93.189 218.308,97.029 
		203.045,97.029 203.045,93.317 212.069,84.101 204.005,84.101 204.005,80.326 	"/>
	<path fill="#FFFFFF" d="M228.839,79.814c-6.4-0.35-9.63,3.71-9.63,8.83c0,6.18,4.28,8.86,8.99,8.86c6.52,0,8.96-4.64,8.96-8.86
		C237.16,85.604,235.65,80.194,228.839,79.814z M228.2,93.604c-2.75,0-4.03-2.34-4.03-4.99c0-1.15,0.22-2.31,0.83-3.27
		c0.67-1.05,1.5-1.53,2.91-1.63c0.7-0.06,1.85-0.03,2.88,0.93c0.93,0.9,1.37,2.34,1.37,4.19
		C232.16,91.464,230.849,93.604,228.2,93.604z"/>
	<path fill="#FFFFFF" d="M243.781,81.83c0.48-0.512,0.8-0.896,1.663-1.312c0.768-0.32,1.856-0.608,3.04-0.608
		c0.992,0,2.112,0.192,2.976,0.672c1.76,0.928,2.208,2.432,2.208,5.023v11.423h-4.896v-9.407c0-1.504-0.032-2.048-0.224-2.496
		c-0.384-0.895-1.248-1.28-2.208-1.28c-2.591,0-2.591,2.08-2.591,4.16v9.023h-4.928V80.358h4.96V81.83L243.781,81.83z"/>
	<path fill="#FFFFFF" d="M270.819,97.024c-0.38-0.57-0.48-0.83-0.48-2.62v-9.73c0-4.32-4.96-4.8-7.01-4.8
		c-1.95,0-3.93,0.26-5.47,1.48c-1.5,1.18-1.66,2.56-1.76,3.71h4.93c0.13-0.61,0.41-1.95,2.59-1.95c1.76,0,1.82,1.28,1.89,2.04v0.9
		c-2.08,0.38-5.25,0.96-6.59,1.53c-1.38,0.58-3.52,2.12-3.52,4.8c0,2.34,1.63,5.09,5.47,5.09c2.46,0,3.87-1.05,5.12-1.98v1.53
		H270.819z M263.779,93.314c-0.51,0.32-1.09,0.55-1.7,0.55c-1.15,0-1.85-0.9-1.85-1.7c0-1.28,1.28-1.76,2.11-2.08l3.17-1.06
		C265.479,90.754,265.41,92.294,263.779,93.314z"/>
	<path fill="#FFFFFF" d="M281.252,90.245c0.577,0.64,1.056,1.152,2.176,1.76c1.504,0.8,3.04,1.088,4.352,1.088
		c2.24,0,4.159-1.056,4.159-2.624c0-1.792-2.272-2.08-3.936-2.304c-1.248-0.16-2.495-0.32-3.711-0.576
		c-1.375-0.288-6.08-1.28-6.08-6.144c0-5.823,5.184-7.551,9.087-7.551c5.216,0,8.033,2.528,9.984,4.288l-4.159,2.975
		c-0.705-0.704-1.344-1.311-2.241-1.824c-0.8-0.448-2.239-0.992-3.679-0.992c-2.24,0-3.36,1.28-3.36,2.368
		c0,1.728,1.92,1.984,2.88,2.112c2.4,0.288,5.631,0.896,6.911,1.344c2.592,0.96,3.904,2.976,3.904,5.536
		c0,1.632-0.608,3.424-1.791,4.8c-2.048,2.368-5.313,3.04-8.48,3.04c-6.368,0-8.896-2.943-10.304-4.575L281.252,90.245
		L281.252,90.245z"/>
	<path fill="#FFFFFF" d="M299.972,75.494h4.896v5.216h3.231v3.008h-3.264v7.519c-0.032,1.024-0.032,1.888,1.281,1.888l1.759-0.064
		v3.84c-1.055,0.16-1.696,0.256-2.591,0.256c-1.697,0-3.552-0.096-4.608-1.632c-0.672-0.992-0.704-2.176-0.704-3.776v-8.063h-2.431
		v-3.007h2.431V75.494L299.972,75.494z"/>
	<path fill="#FFFFFF" d="M324.319,97.024c-0.38-0.57-0.48-0.83-0.48-2.62v-9.73c0-4.32-4.96-4.8-7-4.8c-1.96,0-3.94,0.26-5.48,1.48
		c-1.5,1.18-1.66,2.56-1.76,3.71h4.93c0.13-0.61,0.42-1.95,2.59-1.95c1.76,0,1.83,1.28,1.89,2.04v0.9
		c-2.08,0.38-5.25,0.96-6.59,1.53c-1.38,0.58-3.52,2.12-3.52,4.8c0,2.34,1.63,5.09,5.47,5.09c2.47,0,3.87-1.05,5.12-1.98v1.53
		H324.319z M317.279,93.314c-0.51,0.32-1.08,0.55-1.69,0.55c-1.15,0-1.86-0.9-1.86-1.7c0-1.28,1.28-1.76,2.11-2.08l3.17-1.06
		C318.979,90.754,318.92,92.294,317.279,93.314z"/>
	<path fill="#FFFFFF" d="M327.267,75.494h4.897v5.216h3.231v3.008h-3.264v7.519c-0.032,1.024-0.032,1.888,1.28,1.888l1.759-0.064
		v3.84c-1.055,0.16-1.695,0.256-2.591,0.256c-1.696,0-3.552-0.096-4.608-1.632c-0.672-0.992-0.704-2.176-0.704-3.776v-8.063h-2.432
		v-3.007h2.432V75.494L327.267,75.494z"/>
	<path fill="#FFFFFF" d="M344.87,93.824c-2.66,0-3.84-2.08-3.81-4.16h11.94c-0.07-1.88-0.2-5.15-2.37-7.48
		c-2.15-2.31-5.03-2.4-6.02-2.4c-6.59,0-8.57,5.18-8.57,9.21c0,5.47,3.48,8.64,8.44,8.64c2.69,0,4.87-1.02,6.31-2.37
		c0.86-0.8,1.44-1.63,2.01-2.49l-3.71-1.89C348.479,92.064,347.549,93.824,344.87,93.824z M342.079,84.394
		c0.48-0.52,1.32-1.09,2.5-1.09c0.86,0,1.79,0.32,2.4,0.93c0.7,0.73,0.83,1.66,0.93,2.36h-6.82
		C341.249,85.894,341.41,85.124,342.079,84.394z"/>
	<path fill="#FFFFFF" d="M180.989,104.438v12.607c-0.031,2.176-0.064,4.352-1.311,6.399c-2.432,3.903-7.456,4.096-8.416,4.096
		c-1.696,0-3.712-0.416-5.247-1.216c-4.352-2.24-4.352-6.208-4.32-9.279v-12.607h5.696v14.079c0,1.152,0.031,2.112,0.415,2.815
		c0.704,1.185,2.24,1.536,3.648,1.536c3.84,0,3.84-2.624,3.872-4.384v-14.047H180.989L180.989,104.438z"/>
	<path fill="#FFFFFF" d="M188.51,111.83c0.48-0.512,0.8-0.895,1.664-1.311c0.768-0.32,1.856-0.608,3.04-0.608
		c0.992,0,2.112,0.192,2.975,0.672c1.76,0.928,2.208,2.432,2.208,5.023v11.424h-4.896v-9.407c0-1.504-0.031-2.048-0.223-2.496
		c-0.384-0.895-1.248-1.28-2.208-1.28c-2.592,0-2.592,2.08-2.592,4.16v9.023h-4.928v-16.671h4.96V111.83L188.51,111.83z"/>
	<path fill="#FFFFFF" d="M200.959,110.294v16.73h4.86v-16.73H200.959z M200.959,104.404v3.81h4.86v-3.81H200.959z"/>
	<path fill="#FFFFFF" d="M207.262,110.326h5.183c2.048,7.424,2.4,8.959,2.944,12.159c0.672-3.712,0.768-4.128,1.76-8.063
		l1.024-4.096h5.056l-5.408,16.703h-5.152L207.262,110.326L207.262,110.326z"/>
	<path fill="#FFFFFF" d="M231.999,123.824c-2.66,0-3.84-2.08-3.81-4.15h11.94c-0.07-1.89-0.2-5.16-2.37-7.49
		c-2.15-2.31-5.03-2.4-6.02-2.4c-6.59,0-8.57,5.18-8.57,9.21c0,5.48,3.48,8.64,8.44,8.64c2.69,0,4.87-1.02,6.31-2.37
		c0.86-0.79,1.44-1.63,2.01-2.49l-3.71-1.89C235.609,122.064,234.69,123.824,231.999,123.824z M229.209,114.394
		c0.48-0.52,1.32-1.09,2.5-1.09c0.86,0,1.79,0.32,2.4,0.93c0.7,0.73,0.83,1.66,0.93,2.36h-6.82
		C228.38,115.894,228.539,115.124,229.209,114.394z"/>
	<path fill="#FFFFFF" d="M246.909,112.053c1.088-0.928,2.272-1.663,4.832-1.919v4.352l-1.632,0.256
		c-2.368,0.416-3.072,0.768-3.072,2.88v9.407h-4.928v-16.735h4.8V112.053L246.909,112.053z"/>
	<path fill="#FFFFFF" d="M254.717,121.397c1.345,1.311,3.008,2.304,4.864,2.304c1.184,0,2.976-0.384,2.976-1.632
		c0-0.576-0.352-0.8-0.64-0.96c-0.736-0.384-1.888-0.479-2.848-0.64c-0.736-0.128-1.504-0.288-2.239-0.512
		c-1.024-0.288-2.048-0.704-2.785-1.44c-0.735-0.736-1.247-1.888-1.247-3.136c0-2.752,2.368-5.6,7.039-5.6
		c3.936,0,6.304,1.696,7.455,2.496l-3.039,2.815c-1.568-1.216-3.04-1.664-4.192-1.664c-1.92,0-2.368,0.769-2.368,1.248
		c0,0.96,1.056,1.152,2.656,1.44c3.36,0.607,7.264,1.504,7.264,5.472c0,3.935-3.968,5.855-7.904,5.855
		c-4.64,0-7.04-2.24-8.095-3.232L254.717,121.397L254.717,121.397z"/>
	<path fill="#FFFFFF" d="M269.15,110.294v16.73h4.86v-16.73H269.15z M269.15,104.404v3.81h4.86v-3.81H269.15z"/>
	<path fill="#FFFFFF" d="M278.173,105.494h4.896v5.216h3.231v3.008h-3.263v7.52c-0.033,1.024-0.033,1.888,1.28,1.888l1.76-0.064
		v3.84c-1.056,0.16-1.697,0.256-2.592,0.256c-1.696,0-3.552-0.096-4.608-1.632c-0.672-0.992-0.704-2.176-0.704-3.776v-8.063h-2.432
		v-3.007h2.432V105.494L278.173,105.494z"/>
	<path fill="#FFFFFF" d="M303.453,110.326l-5.888,18.047c-0.384,1.088-0.736,2.111-1.568,3.04c-1.152,1.248-2.272,1.311-3.552,1.344
		h-3.552v-3.904h1.729c0.799-0.031,2.047-0.031,2.047-1.216c0-0.416-0.128-0.832-0.224-1.184l-4.991-16.127h5.247l2.752,11.967
		l2.752-11.967H303.453L303.453,110.326z"/>
	<path fill="#FFFFFF" d="M150.039,126.584c0,0-0.87-0.96-2.3-2.51c-1.77-1.9-1.67-3.92-1.67-3.92v-45.72h-17.31v36.56
		c-0.21,3.47-3.59,4.34-5.46,4.28c-2.68-0.08-4.24-1.59-4.24-4.17v-36.67H102.2c0,0-7.03,0.01-11.87,0.01
		c-9.22,0-17.93,1.42-20.87,9.09l-1.74-6.79c-0.42-1.35-1.88-2.31-3.32-2.31h-30.12c-0.44,0-0.6,0.14-0.38,0.45
		c0,0,0.82,0.78,2.3,2.48c2.07,2.36,1.26,5.5,1.26,5.5l-11.03,44.15h16.06l2.3-9.69h15.5l2.42,9.69c0,0,19.77,0,21.14,0
		c8.68,0,15.74-0.88,19.22-6.3c2.6,4.95,8.2,7.26,18.09,6.41c3.44-0.29,6.81-1.9,8.26-4.47l0.68,2.13c0.57,1.29,1.75,2.24,3.43,2.24
		h16.15C150.12,127.024,150.259,126.894,150.039,126.584z M66.13,83.854l2.9,1.76c-0.1,0.47-0.21,1.11-0.28,1.56l-3.02-2.8
		C65.44,84.104,65.789,83.644,66.13,83.854z M63.17,87.544l5.44,2.19c-0.01,0.64,0.02,1.52,0.09,2.18l-5.83-3.8
		C62.539,87.904,62.799,87.394,63.17,87.544z M60.959,91.644l8.01,1.81c0.21,0.96,0.58,2.01,0.98,2.81l-9.18-4.02
		C60.41,92.094,60.589,91.564,60.959,91.644z M47.209,107.744l5.34-21.59l5.37,21.59H47.209z M91.499,114.884
		c-1.55,1.41-4.37,2.1-7.48,1.8c-1.76-0.17-3.6-1.07-3.6-1.07l-6.48,8.03c-0.26,0.32-0.75,0-0.57-0.37l4.44-8.93
		c0.05-0.1-0.08-0.2-0.17-0.13l-7.88,6.86c-0.3,0.27-0.73-0.13-0.49-0.45l6.11-8.12c0.06-0.09-0.04-0.2-0.13-0.15l-9.13,5.55
		c-0.34,0.21-0.69-0.25-0.4-0.52l7.63-7.07c0.07-0.07-0.01-0.2-0.1-0.16l-10.08,4.05c-0.37,0.15-0.63-0.35-0.3-0.57l8.87-5.77
		c0.09-0.06,0.03-0.2-0.07-0.17l-10.71,2.41c-0.37,0.08-0.55-0.45-0.19-0.6l9.91-4.33c0.09-0.04,0.05-0.17-0.04-0.16l-11.02,0.7
		c-0.39,0.03-0.47-0.52-0.1-0.62l10.59-2.71c0.1-0.03,0.09-0.16-0.01-0.17l-10.99-1.03c-0.38-0.03-0.38-0.58,0-0.62l11.01-1.03
		c0.1-0.01,0.11-0.14,0.02-0.16l-10.62-2.72c-0.37-0.1-0.29-0.64,0.1-0.62l10.58,0.68c2.7,4.94,8.41,6.91,13.43,8.65
		c4.88,1.68,9.08,3.14,9.08,6.9C92.709,113.264,92.299,114.154,91.499,114.884z M106.579,121.084l-2.49-2.17
		c0,0,0.36-0.89,0.55-1.52l2.43,3.24C107.319,120.954,106.89,121.354,106.579,121.084z M110.22,117.904l-5.01-3.04
		c0,0,0.2-1.46,0.24-2.27l5.16,4.79C110.9,117.654,110.549,118.114,110.22,117.904z M113.16,114.204l-7.66-3.08
		c0,0,0.02-1.78-0.18-2.79l8.13,5.3C113.779,113.844,113.519,114.344,113.16,114.204z M117.209,101.184l-10.97,1.03
		c-0.1,0.01-0.11,0.14-0.02,0.17l10.58,2.71c0.37,0.09,0.29,0.65-0.1,0.62l-11-0.7c-0.1-0.01-0.13,0.12-0.04,0.16l9.91,4.33
		c0.35,0.15,0.18,0.68-0.2,0.6l-10.14-2.29c0,0-0.41-4.54-5.66-8.16c-2.75-1.89-6.09-3.15-9.04-4.28c-2.26-0.85-4.38-1.67-5.92-2.62
		c-1.72-1.09-2.52-2.26-2.52-3.68c0-1.04,0.34-1.91,1.03-2.58c1.18-1.16,3.33-1.68,6.24-1.65c3.12,0.02,6.43,1.43,6.43,1.43
		l6.6-8.17c0.26-0.32,0.76,0,0.58,0.37l-4.49,9.03c-0.04,0.08,0.06,0.16,0.13,0.1l7.97-6.94c0.31-0.26,0.74,0.13,0.49,0.46
		l-6.16,8.18c-0.06,0.08,0.03,0.18,0.12,0.13l9.16-5.58c0.34-0.2,0.69,0.26,0.4,0.53l-7.63,7.08c-0.07,0.07,0,0.18,0.09,0.14
		l10.11-4.06c0.36-0.14,0.62,0.36,0.29,0.58l-8.89,5.79c-0.08,0.05-0.03,0.18,0.06,0.16l10.75-2.43c0.38-0.08,0.55,0.45,0.2,0.6
		l-9.91,4.33c-0.09,0.04-0.06,0.17,0.04,0.17l11-0.71c0.39-0.02,0.47,0.53,0.1,0.62l-10.58,2.72c-0.09,0.02-0.08,0.16,0.02,0.17
		l10.97,1.02C117.589,100.594,117.589,101.154,117.209,101.184z"/>
	<path fill="#FFFFFF" d="M151.059,76.764c0.14-0.04,0.48-0.2,0.48-0.67c0-0.28-0.12-0.48-0.27-0.6c-0.22-0.17-0.43-0.17-0.76-0.18
		h-0.78v2.44h0.46v-0.9h0.4l0.49,0.9h0.52L151.059,76.764z M150.65,76.464c-0.09,0.01-0.15,0.01-0.3,0.01h-0.16v-0.76h0.21
		c0.27,0,0.39,0,0.48,0.05c0.19,0.1,0.2,0.28,0.2,0.33C151.079,76.444,150.749,76.464,150.65,76.464z M151.059,76.764
		c0.14-0.04,0.48-0.2,0.48-0.67c0-0.28-0.12-0.48-0.27-0.6c-0.22-0.17-0.43-0.17-0.76-0.18h-0.78v2.44h0.46v-0.9h0.4l0.49,0.9h0.52
		L151.059,76.764z M150.65,76.464c-0.09,0.01-0.15,0.01-0.3,0.01h-0.16v-0.76h0.21c0.27,0,0.39,0,0.48,0.05
		c0.19,0.1,0.2,0.28,0.2,0.33C151.079,76.444,150.749,76.464,150.65,76.464z M151.059,76.764c0.14-0.04,0.48-0.2,0.48-0.67
		c0-0.28-0.12-0.48-0.27-0.6c-0.22-0.17-0.43-0.17-0.76-0.18h-0.78v2.44h0.46v-0.9h0.4l0.49,0.9h0.52L151.059,76.764z
		 M150.65,76.464c-0.09,0.01-0.15,0.01-0.3,0.01h-0.16v-0.76h0.21c0.27,0,0.39,0,0.48,0.05c0.19,0.1,0.2,0.28,0.2,0.33
		C151.079,76.444,150.749,76.464,150.65,76.464z M151.059,76.764c0.14-0.04,0.48-0.2,0.48-0.67c0-0.28-0.12-0.48-0.27-0.6
		c-0.22-0.17-0.43-0.17-0.76-0.18h-0.78v2.44h0.46v-0.9h0.4l0.49,0.9h0.52L151.059,76.764z M150.65,76.464
		c-0.09,0.01-0.15,0.01-0.3,0.01h-0.16v-0.76h0.21c0.27,0,0.39,0,0.48,0.05c0.19,0.1,0.2,0.28,0.2,0.33
		C151.079,76.444,150.749,76.464,150.65,76.464z M151.059,76.764c0.14-0.04,0.48-0.2,0.48-0.67c0-0.28-0.12-0.48-0.27-0.6
		c-0.22-0.17-0.43-0.17-0.76-0.18h-0.78v2.44h0.46v-0.9h0.4l0.49,0.9h0.52L151.059,76.764z M150.65,76.464
		c-0.09,0.01-0.15,0.01-0.3,0.01h-0.16v-0.76h0.21c0.27,0,0.39,0,0.48,0.05c0.19,0.1,0.2,0.28,0.2,0.33
		C151.079,76.444,150.749,76.464,150.65,76.464z M151.059,76.764c0.14-0.04,0.48-0.2,0.48-0.67c0-0.28-0.12-0.48-0.27-0.6
		c-0.22-0.17-0.43-0.17-0.76-0.18h-0.78v2.44h0.46v-0.9h0.4l0.49,0.9h0.52L151.059,76.764z M150.65,76.464
		c-0.09,0.01-0.15,0.01-0.3,0.01h-0.16v-0.76h0.21c0.27,0,0.39,0,0.48,0.05c0.19,0.1,0.2,0.28,0.2,0.33
		C151.079,76.444,150.749,76.464,150.65,76.464z M151.059,76.764c0.14-0.04,0.48-0.2,0.48-0.67c0-0.28-0.12-0.48-0.27-0.6
		c-0.22-0.17-0.43-0.17-0.76-0.18h-0.78v2.44h0.46v-0.9h0.4l0.49,0.9h0.52L151.059,76.764z M150.65,76.464
		c-0.09,0.01-0.15,0.01-0.3,0.01h-0.16v-0.76h0.21c0.27,0,0.39,0,0.48,0.05c0.19,0.1,0.2,0.28,0.2,0.33
		C151.079,76.444,150.749,76.464,150.65,76.464z M151.059,76.764c0.14-0.04,0.48-0.2,0.48-0.67c0-0.28-0.12-0.48-0.27-0.6
		c-0.22-0.17-0.43-0.17-0.76-0.18h-0.78v2.44h0.46v-0.9h0.4l0.49,0.9h0.52L151.059,76.764z M150.65,76.464
		c-0.09,0.01-0.15,0.01-0.3,0.01h-0.16v-0.76h0.21c0.27,0,0.39,0,0.48,0.05c0.19,0.1,0.2,0.28,0.2,0.33
		C151.079,76.444,150.749,76.464,150.65,76.464z M151.059,76.764c0.14-0.04,0.48-0.2,0.48-0.67c0-0.28-0.12-0.48-0.27-0.6
		c-0.22-0.17-0.43-0.17-0.76-0.18h-0.78v2.44h0.46v-0.9h0.4l0.49,0.9h0.52L151.059,76.764z M150.65,76.464
		c-0.09,0.01-0.15,0.01-0.3,0.01h-0.16v-0.76h0.21c0.27,0,0.39,0,0.48,0.05c0.19,0.1,0.2,0.28,0.2,0.33
		C151.079,76.444,150.749,76.464,150.65,76.464z M150.539,74.364c-1.18,0-2.19,0.93-2.19,2.2c0,1.3,1.05,2.2,2.19,2.2
		c1.24,0,2.2-0.97,2.21-2.19C152.749,75.364,151.819,74.364,150.539,74.364z M150.549,78.504c-1.08,0-1.95-0.85-1.95-1.94
		c0-1.07,0.86-1.95,1.95-1.95c1.11,0,1.95,0.89,1.94,1.95C152.479,77.644,151.65,78.504,150.549,78.504z M151.539,76.094
		c0-0.28-0.12-0.48-0.27-0.6c-0.22-0.17-0.43-0.17-0.76-0.18h-0.78v2.44h0.46v-0.9h0.4l0.49,0.9h0.52l-0.54-0.99
		C151.2,76.724,151.539,76.564,151.539,76.094z M150.65,76.464c-0.09,0.01-0.15,0.01-0.3,0.01h-0.16v-0.76h0.21
		c0.27,0,0.39,0,0.48,0.05c0.19,0.1,0.2,0.28,0.2,0.33C151.079,76.444,150.749,76.464,150.65,76.464z M151.059,76.764
		c0.14-0.04,0.48-0.2,0.48-0.67c0-0.28-0.12-0.48-0.27-0.6c-0.22-0.17-0.43-0.17-0.76-0.18h-0.78v2.44h0.46v-0.9h0.4l0.49,0.9h0.52
		L151.059,76.764z M150.65,76.464c-0.09,0.01-0.15,0.01-0.3,0.01h-0.16v-0.76h0.21c0.27,0,0.39,0,0.48,0.05
		c0.19,0.1,0.2,0.28,0.2,0.33C151.079,76.444,150.749,76.464,150.65,76.464z M151.059,76.764c0.14-0.04,0.48-0.2,0.48-0.67
		c0-0.28-0.12-0.48-0.27-0.6c-0.22-0.17-0.43-0.17-0.76-0.18h-0.78v2.44h0.46v-0.9h0.4l0.49,0.9h0.52L151.059,76.764z
		 M150.65,76.464c-0.09,0.01-0.15,0.01-0.3,0.01h-0.16v-0.76h0.21c0.27,0,0.39,0,0.48,0.05c0.19,0.1,0.2,0.28,0.2,0.33
		C151.079,76.444,150.749,76.464,150.65,76.464z M151.059,76.764c0.14-0.04,0.48-0.2,0.48-0.67c0-0.28-0.12-0.48-0.27-0.6
		c-0.22-0.17-0.43-0.17-0.76-0.18h-0.78v2.44h0.46v-0.9h0.4l0.49,0.9h0.52L151.059,76.764z M150.65,76.464
		c-0.09,0.01-0.15,0.01-0.3,0.01h-0.16v-0.76h0.21c0.27,0,0.39,0,0.48,0.05c0.19,0.1,0.2,0.28,0.2,0.33
		C151.079,76.444,150.749,76.464,150.65,76.464z M151.059,76.764c0.14-0.04,0.48-0.2,0.48-0.67c0-0.28-0.12-0.48-0.27-0.6
		c-0.22-0.17-0.43-0.17-0.76-0.18h-0.78v2.44h0.46v-0.9h0.4l0.49,0.9h0.52L151.059,76.764z M150.65,76.464
		c-0.09,0.01-0.15,0.01-0.3,0.01h-0.16v-0.76h0.21c0.27,0,0.39,0,0.48,0.05c0.19,0.1,0.2,0.28,0.2,0.33
		C151.079,76.444,150.749,76.464,150.65,76.464z M151.059,76.764c0.14-0.04,0.48-0.2,0.48-0.67c0-0.28-0.12-0.48-0.27-0.6
		c-0.22-0.17-0.43-0.17-0.76-0.18h-0.78v2.44h0.46v-0.9h0.4l0.49,0.9h0.52L151.059,76.764z M150.65,76.464
		c-0.09,0.01-0.15,0.01-0.3,0.01h-0.16v-0.76h0.21c0.27,0,0.39,0,0.48,0.05c0.19,0.1,0.2,0.28,0.2,0.33
		C151.079,76.444,150.749,76.464,150.65,76.464z M151.059,76.764c0.14-0.04,0.48-0.2,0.48-0.67c0-0.28-0.12-0.48-0.27-0.6
		c-0.22-0.17-0.43-0.17-0.76-0.18h-0.78v2.44h0.46v-0.9h0.4l0.49,0.9h0.52L151.059,76.764z M150.65,76.464
		c-0.09,0.01-0.15,0.01-0.3,0.01h-0.16v-0.76h0.21c0.27,0,0.39,0,0.48,0.05c0.19,0.1,0.2,0.28,0.2,0.33
		C151.079,76.444,150.749,76.464,150.65,76.464z M151.059,76.764c0.14-0.04,0.48-0.2,0.48-0.67c0-0.28-0.12-0.48-0.27-0.6
		c-0.22-0.17-0.43-0.17-0.76-0.18h-0.78v2.44h0.46v-0.9h0.4l0.49,0.9h0.52L151.059,76.764z M150.65,76.464
		c-0.09,0.01-0.15,0.01-0.3,0.01h-0.16v-0.76h0.21c0.27,0,0.39,0,0.48,0.05c0.19,0.1,0.2,0.28,0.2,0.33
		C151.079,76.444,150.749,76.464,150.65,76.464z"/>
</g>
<g>
	<path fill="#FFFFFF" d="M30.959,26.704v16.96h4.2v-16.96H30.959z"/>
	<path fill="#FFFFFF" d="M44.959,31.164c-1.68,0-2.84,0.71-3.75,2.01h-0.07v-1.66h-3.72v12.15h3.87v-6.71c0-1.5,0.85-2.57,2.13-2.57
		c1.26,0,1.9,0.88,1.9,2.16v7.12h3.87v-7.9C49.19,33.064,47.62,31.164,44.959,31.164z"/>
	<path fill="#FFFFFF" d="M62.93,39.064c-0.17,1.37-0.9,2.09-2.11,2.09c-1.66,0-2.49-1.38-2.49-3.54c0-2.21,0.83-3.58,2.49-3.58
		c1.09,0,1.75,0.71,1.99,1.8h3.73c-0.36-2.73-2.47-4.65-5.77-4.65c-3.84,0-6.36,2.78-6.36,6.43c0,3.66,2.54,6.43,6.46,6.43
		c3.44,0,5.67-2.18,5.76-4.98H62.93z"/>
	<path fill="#FFFFFF" d="M73.99,31.184c-3.89,0-6.5,2.78-6.5,6.43c0,3.66,2.61,6.43,6.5,6.43c3.91,0,6.48-2.77,6.48-6.43
		C80.47,33.964,77.9,31.184,73.99,31.184z M73.97,41.294c-1.69,0-2.57-1.47-2.57-3.68c0-2.21,0.88-3.7,2.57-3.7
		c1.68,0,2.58,1.49,2.58,3.7C76.549,39.824,75.65,41.294,73.97,41.294z"/>
	<path fill="#FFFFFF" d="M81.97,26.704v16.96h3.91v-16.96H81.97z"/>
	<path fill="#FFFFFF" d="M87.95,26.704v16.96h3.91v-16.96H87.95z"/>
	<path fill="#FFFFFF" d="M104.869,41.764v-6.12c0-1.52-0.5-2.7-1.55-3.46c-0.88-0.67-2.11-1-3.94-1c-3.67,0-5.41,1.92-5.5,4.18h3.56
		c0.12-1.02,0.73-1.57,1.97-1.57c1.16,0,1.66,0.52,1.66,1.31c0,0.83-0.81,1.06-3.09,1.35c-2.51,0.33-4.65,1.14-4.65,3.82
		c0,2.4,1.74,3.7,4.16,3.7c1.82,0,2.89-0.64,3.6-1.66h0.05c0.09,0.62,0.21,1.09,0.4,1.35h3.75v-0.16
		C104.959,43.284,104.869,42.744,104.869,41.764z M101.16,39.324c0,1.3-0.99,2.18-2.44,2.18c-0.95,0-1.66-0.38-1.66-1.35
		c0-0.93,0.62-1.31,2.11-1.64c0.78-0.19,1.5-0.38,1.99-0.64V39.324z"/>
	<path fill="#FFFFFF" d="M114.309,31.164c-1.66,0-2.7,0.69-3.46,1.73h-0.07v-6.19h-3.87v16.96h3.7v-1.54h0.05
		c0.76,1.26,2.06,1.92,3.68,1.92c3.13,0,5.17-2.42,5.17-6.45C119.509,33.934,117.47,31.164,114.309,31.164z M113.24,40.984
		c-1.59,0-2.58-1.38-2.58-3.39c0-2,0.83-3.49,2.54-3.49c1.56,0,2.39,1.38,2.39,3.46C115.589,39.684,114.759,40.984,113.24,40.984z"
		/>
	<path fill="#FFFFFF" d="M126.94,31.184c-3.89,0-6.5,2.78-6.5,6.43c0,3.66,2.61,6.43,6.5,6.43c3.91,0,6.48-2.77,6.48-6.43
		C133.42,33.964,130.849,31.184,126.94,31.184z M126.92,41.294c-1.69,0-2.57-1.47-2.57-3.68c0-2.21,0.88-3.7,2.57-3.7
		c1.68,0,2.58,1.49,2.58,3.7C129.499,39.824,128.599,41.294,126.92,41.294z"/>
	<path fill="#FFFFFF" d="M141.979,31.324c-1.47,0-2.46,0.64-3.32,2.09h-0.07v-1.9h-3.7v12.15h3.87v-5.46c0-2.63,1.52-3.79,3.89-3.46
		h0.09v-3.32C142.579,31.354,142.339,31.324,141.979,31.324z"/>
	<path fill="#FFFFFF" d="M154.749,41.764v-6.12c0-1.52-0.5-2.7-1.54-3.46c-0.88-0.67-2.11-1-3.94-1c-3.68,0-5.41,1.92-5.5,4.18h3.56
		c0.11-1.02,0.73-1.57,1.96-1.57c1.17,0,1.67,0.52,1.67,1.31c0,0.83-0.81,1.06-3.09,1.35c-2.51,0.33-4.65,1.14-4.65,3.82
		c0,2.4,1.73,3.7,4.15,3.7c1.83,0,2.9-0.64,3.61-1.66h0.05c0.09,0.62,0.21,1.09,0.4,1.35h3.75v-0.16
		C154.849,43.284,154.749,42.744,154.749,41.764z M151.049,39.324c0,1.3-1,2.18-2.44,2.18c-0.95,0-1.66-0.38-1.66-1.35
		c0-0.93,0.61-1.31,2.11-1.64c0.78-0.19,1.49-0.38,1.99-0.64V39.324z"/>
	<path fill="#FFFFFF" d="M163.49,33.934v-2.42h-2.21v-3.84h-3.77v3.84h-1.62v2.42h1.62v6.53c0,2.61,1.61,3.34,3.87,3.34
		c1.04,0,1.78-0.09,2.11-0.19v-2.82c-0.14,0-0.52,0.02-0.86,0.02c-0.83,0-1.35-0.23-1.35-1.18v-5.7H163.49z"/>
	<path fill="#FFFFFF" d="M165.059,26.704v3.13h3.86v-3.13H165.059z M165.059,31.514v12.15h3.86v-12.15H165.059z"/>
	<path fill="#FFFFFF" d="M176.9,31.184c-3.89,0-6.5,2.78-6.5,6.43c0,3.66,2.61,6.43,6.5,6.43c3.91,0,6.48-2.77,6.48-6.43
		C183.38,33.964,180.809,31.184,176.9,31.184z M176.87,41.294c-1.68,0-2.56-1.47-2.56-3.68c0-2.21,0.88-3.7,2.56-3.7
		c1.69,0,2.59,1.49,2.59,3.7C179.459,39.824,178.559,41.294,176.87,41.294z"/>
	<path fill="#FFFFFF" d="M192.39,31.164c-1.68,0-2.84,0.71-3.74,2.01h-0.08v-1.66h-3.72v12.15h3.87v-6.71c0-1.5,0.85-2.57,2.13-2.57
		c1.26,0,1.9,0.88,1.9,2.16v7.12h3.87v-7.9C196.62,33.064,195.049,31.164,192.39,31.164z"/>
	<path fill="#FFFFFF" d="M216.249,31.514l-1.36,5.03c-0.26,0.98-0.57,2.38-0.57,2.38h-0.04c0,0-0.31-1.4-0.57-2.45l-1.33-4.96h-3.28
		l-1.28,4.96c-0.26,1.02-0.54,2.42-0.54,2.42h-0.05c0,0-0.29-1.37-0.55-2.35l-1.33-5.03h-3.93l3.72,12.15h3.58l1.45-5.5
		c0.26-0.95,0.55-2.19,0.55-2.19h0.04c0,0,0.27,1.24,0.53,2.19l1.42,5.5h3.63l3.73-12.15H216.249z"/>
	<path fill="#FFFFFF" d="M221.14,26.704v3.13h3.87v-3.13H221.14z M221.14,31.514v12.15h3.87v-12.15H221.14z"/>
	<path fill="#FFFFFF" d="M233.95,33.934v-2.42h-2.2v-3.84h-3.78v3.84h-1.61v2.42h1.61v6.53c0,2.61,1.62,3.34,3.87,3.34
		c1.04,0,1.78-0.09,2.11-0.19v-2.82c-0.14,0-0.52,0.02-0.85,0.02c-0.83,0-1.35-0.23-1.35-1.18v-5.7H233.95z"/>
	<path fill="#FFFFFF" d="M243.059,31.164c-1.68,0-2.72,0.69-3.6,1.85h-0.07v-6.31h-3.87v16.96h3.87v-6.71c0-1.5,0.85-2.57,2.13-2.57
		c1.26,0,1.9,0.88,1.9,2.16v7.12h3.87v-7.9C247.289,33.064,245.72,31.164,243.059,31.164z"/>
</g>
<g>
</g>
<g>
</g>
<g>
</g>
<g>
</g>
<g>
</g>
<g>
</g>
</svg>
