<svg width="175" height="67" viewBox="0 0 175 67" fill="none" xmlns="http://www.w3.org/2000/svg">
<g clip-path="url(#clip0_1808_2419)">
<path d="M64.0479 6.88469C64.0479 2.53189 67.0238 0.399902 70.3106 0.399902C73.2421 0.399902 75.3297 1.99889 75.8183 4.53063L73.6863 4.97479C73.3309 3.24255 72.0429 2.22097 70.3106 2.22097C67.9566 2.22097 66.2243 3.86438 66.2243 6.88469C66.2243 9.86059 67.9566 11.504 70.3106 11.504C72.0873 11.504 73.2421 10.5268 73.6418 8.92785L75.7738 9.37201C75.152 11.8593 73.1533 13.3695 70.3106 13.3695C67.0238 13.3695 64.0479 11.1931 64.0479 6.88469Z" fill="white"/>
<path fill-rule="evenodd" clip-rule="evenodd" d="M86.034 13.2361H84.0353V12.0369C83.5911 12.8364 82.4807 13.3694 81.2815 13.3694C78.4832 13.3694 76.9286 11.4151 76.9286 8.66126C76.9286 5.90745 78.4832 3.95312 81.237 3.95312C82.4363 3.95312 83.5023 4.44171 84.0353 5.2412V4.08637H86.034V13.2361ZM84.1685 8.66126C84.1685 6.84019 83.1469 5.68536 81.548 5.68536C79.949 5.68536 78.883 6.84019 78.883 8.66126C78.883 10.4379 79.949 11.6372 81.548 11.6372C83.1469 11.6372 84.1685 10.4379 84.1685 8.66126Z" fill="white"/>
<path d="M92.4739 5.7742C91.097 5.7742 89.9422 6.97344 89.9422 9.81609V13.2361H87.9434V4.08637H89.9422V5.81861C90.4307 4.75262 91.63 3.95312 92.7404 3.95312C93.0513 3.95312 93.4511 3.99754 93.762 4.08637L93.6287 5.99628C93.3178 5.86303 92.8736 5.7742 92.4739 5.7742Z" fill="white"/>
<path d="M95.0508 0.399902H97.0496V13.2362H95.0508V0.399902Z" fill="white"/>
<path fill-rule="evenodd" clip-rule="evenodd" d="M122.188 9.10543H115.215C115.393 10.7044 116.414 11.6816 117.836 11.6816C119.035 11.6816 119.923 11.1042 120.145 10.127L122.011 10.5712C121.522 12.3478 119.968 13.3694 117.836 13.3694C114.904 13.3694 113.261 11.1042 113.261 8.66126C113.261 6.17394 114.815 3.95312 117.747 3.95312C120.678 3.95312 122.233 6.08511 122.233 8.30593C122.233 8.57243 122.188 8.97218 122.188 9.10543ZM120.101 7.59527C120.012 6.39603 119.168 5.5077 117.747 5.5077C116.459 5.5077 115.57 6.26278 115.304 7.59527H120.101Z" fill="white"/>
<path d="M123.699 4.08637H125.653V5.64095C126.142 4.61937 127.03 3.95312 128.363 3.95312C129.829 3.95312 130.895 4.57495 131.25 5.72978C131.738 4.75262 132.849 3.95312 134.27 3.95312C136.225 3.95312 137.513 5.19678 137.513 7.06227V13.2361H135.514V7.55085C135.514 6.39603 134.848 5.64095 133.693 5.64095C132.36 5.64095 131.561 6.84019 131.561 8.57243V13.2361H129.606V7.55085C129.606 6.39603 128.985 5.64095 127.83 5.64095C126.453 5.64095 125.653 6.84019 125.653 8.57243V13.2361H123.699V4.08637Z" fill="white"/>
<path d="M139.289 1.28808C139.289 0.577413 139.822 0 140.577 0C141.288 0 141.865 0.577413 141.865 1.28808C141.865 1.99874 141.288 2.57615 140.577 2.57615C139.822 2.57615 139.289 1.99874 139.289 1.28808ZM139.6 4.08631H141.554V13.2361H139.6V4.08631Z" fill="white"/>
<path fill-rule="evenodd" clip-rule="evenodd" d="M152.126 4.08637V12.7032C152.126 15.0572 150.305 16.6562 147.684 16.6562C145.552 16.6562 143.865 15.5014 143.598 13.858L145.419 13.5471C145.552 14.4354 146.485 15.0572 147.684 15.0572C149.15 15.0572 150.172 14.1689 150.172 12.9252V11.8148C149.728 12.4811 148.662 12.9697 147.462 12.9697C144.753 12.9697 143.198 11.1042 143.198 8.43918C143.198 5.81861 144.753 3.95312 147.418 3.95312C148.573 3.95312 149.639 4.44171 150.172 5.15237V4.08637H152.126ZM150.305 8.43918C150.305 6.75136 149.283 5.64095 147.729 5.64095C146.174 5.64095 145.153 6.75136 145.153 8.43918C145.153 10.127 146.174 11.2374 147.729 11.2374C149.283 11.2374 150.305 10.127 150.305 8.43918Z" fill="white"/>
<path d="M153.902 1.28808C153.902 0.577413 154.435 0 155.146 0C155.901 0 156.478 0.577413 156.478 1.28808C156.478 1.99874 155.901 2.57615 155.146 2.57615C154.435 2.57615 153.902 1.99874 153.902 1.28808ZM154.169 4.08631H156.167V13.2361H154.169V4.08631Z" fill="white"/>
<path d="M166.517 13.2362H164.518V11.6816C163.941 12.6588 162.875 13.3695 161.542 13.3695C159.588 13.3695 158.211 12.0814 158.211 10.0826V4.08643H160.21V9.63847C160.21 10.7933 160.92 11.5928 162.075 11.5928C163.585 11.5928 164.518 10.2603 164.518 8.0839V4.08643H166.517V13.2362Z" fill="white"/>
<path d="M167.627 10.66L169.27 9.99375C169.581 10.9709 170.292 11.7704 171.536 11.7704C172.513 11.7704 173.134 11.2374 173.134 10.5712C173.134 8.61684 168.027 9.90492 168.027 6.44044C168.027 5.01912 169.27 3.95312 171.269 3.95312C173.001 3.95312 174.423 4.84145 174.822 6.17394L173.223 6.88461C172.957 5.95186 172.113 5.46328 171.269 5.46328C170.425 5.46328 169.848 5.81861 169.848 6.39603C169.848 8.17268 175 6.79577 175 10.5712C175 12.1257 173.623 13.3694 171.536 13.3694C169.315 13.3694 168.071 11.9925 167.627 10.66Z" fill="white"/>
<path fill-rule="evenodd" clip-rule="evenodd" d="M113.261 13.2363H110.818L107.62 7.81749H105.266V13.2363H103.134V0.533203H108.464C110.507 0.533203 112.15 2.17661 112.15 4.17535C112.15 5.72992 111.173 7.01799 109.841 7.55099L113.261 13.2363ZM108.153 6.12967C109.219 6.12967 110.063 5.24134 110.063 4.21976C110.063 3.15377 109.219 2.30986 108.153 2.30986H105.266V6.12967H108.153Z" fill="white"/>
<path d="M64.67 17.2778H73.0647V19.1433H66.802V22.4745H71.9099V24.34H66.802V29.9809H64.67V17.2778Z" fill="white"/>
<path d="M78.2615 22.5637C76.929 22.5637 75.7298 23.7186 75.7298 26.5612V29.9813H73.7755V20.8315H75.7298V22.5637C76.2184 21.4977 77.4176 20.6982 78.528 20.6982C78.8833 20.6982 79.2831 20.7427 79.5496 20.8759L79.4163 22.7414C79.1054 22.6081 78.6613 22.5637 78.2615 22.5637Z" fill="white"/>
<path fill-rule="evenodd" clip-rule="evenodd" d="M88.877 25.895H81.9036C82.0813 27.4495 83.0584 28.4267 84.5242 28.4267C85.7234 28.4267 86.5673 27.8937 86.8338 26.8721L88.6993 27.3607C88.2107 29.0929 86.6117 30.1145 84.4798 30.1145C81.5927 30.1145 79.9493 27.8937 79.9493 25.4064C79.9493 22.9635 81.5039 20.6982 84.3909 20.6982C87.3224 20.6982 88.877 22.8302 88.877 25.051C88.877 25.3175 88.877 25.7173 88.877 25.895ZM86.7894 24.3848C86.6562 23.1411 85.8567 22.2528 84.3909 22.2528C83.1473 22.2528 82.2589 23.0079 81.9924 24.3848H86.7894Z" fill="white"/>
<path d="M89.9426 27.4051L91.586 26.7389C91.8969 27.716 92.6076 28.5155 93.8957 28.5155C94.8284 28.5155 95.4503 27.9825 95.4503 27.3163C95.4503 25.362 90.3424 26.65 90.3424 23.1856C90.3424 21.7642 91.6304 20.6982 93.5848 20.6982C95.317 20.6982 96.7828 21.5866 97.1825 22.9191L95.5391 23.6297C95.2726 22.697 94.4287 22.2084 93.6292 22.2084C92.7409 22.2084 92.2079 22.5637 92.2079 23.1411C92.2079 24.9178 97.3157 23.5409 97.3157 27.3163C97.3157 28.8709 95.9388 30.1145 93.8957 30.1145C91.6305 30.1145 90.3868 28.7376 89.9426 27.4051Z" fill="white"/>
<path fill-rule="evenodd" clip-rule="evenodd" d="M107.309 25.8505H100.336C100.514 27.4495 101.535 28.4267 103.001 28.4267C104.2 28.4267 105.044 27.8493 105.266 26.8721L107.132 27.3163C106.643 29.0929 105.089 30.1145 102.957 30.1145C100.025 30.1145 98.3818 27.8493 98.3818 25.4064C98.3818 22.9191 99.9363 20.6982 102.868 20.6982C105.799 20.6982 107.354 22.8302 107.354 25.051C107.354 25.3175 107.354 25.7173 107.309 25.8505ZM105.266 24.3404C105.133 23.1411 104.289 22.2528 102.868 22.2528C101.624 22.2528 100.736 23.0079 100.425 24.3404H105.266Z" fill="white"/>
<path d="M108.687 20.8315H110.685V22.3416C111.263 21.3645 112.329 20.6982 113.661 20.6982C115.616 20.6982 116.992 21.9419 116.992 23.9406V29.9813H114.994V24.3848C114.994 23.23 114.283 22.4749 113.128 22.4749C111.574 22.4749 110.685 23.763 110.685 25.9394V29.9813H108.687V20.8315Z" fill="white"/>
<path d="M118.68 18.0332C118.68 17.3225 119.213 16.7451 119.968 16.7451C120.678 16.7451 121.256 17.3225 121.256 18.0332C121.256 18.7439 120.678 19.3213 119.968 19.3213C119.213 19.3213 118.68 18.7439 118.68 18.0332ZM118.991 20.8314H120.945V29.9812H118.991V20.8314Z" fill="white"/>
<path d="M131.205 29.9808H129.207V28.4263C128.629 29.4034 127.563 30.1141 126.231 30.1141C124.277 30.1141 122.9 28.826 122.9 26.8273V20.8311H124.898V26.3831C124.898 27.5379 125.609 28.3374 126.764 28.3374C128.274 28.3374 129.207 27.0049 129.207 24.8285V20.8311H131.205V29.9808Z" fill="white"/>
<path d="M132.538 27.4051L134.093 26.7389C134.359 27.716 135.025 28.5155 136.224 28.5155C137.113 28.5155 137.69 27.9825 137.69 27.3163C137.69 25.362 132.893 26.65 132.893 23.1856C132.893 21.7642 134.093 20.6982 135.958 20.6982C137.557 20.6982 138.934 21.5866 139.289 22.9191L137.779 23.6297C137.557 22.697 136.757 22.2084 135.958 22.2084C135.159 22.2084 134.626 22.5637 134.626 23.1411C134.626 24.9178 139.467 23.5409 139.467 27.3163C139.467 28.8709 138.179 30.1145 136.224 30.1145C134.137 30.1145 132.938 28.7376 132.538 27.4051Z" fill="white"/>
<path d="M64.67 34.1118H72.9758V35.9773H66.802V39.1753H71.7766V40.9964H66.802V44.9494H73.1535V46.8149H64.67V34.1118Z" fill="white"/>
<path fill-rule="evenodd" clip-rule="evenodd" d="M73.9971 42.24C73.9971 39.4861 75.5961 37.5318 78.3499 37.5318C79.5048 37.5318 80.5708 38.0648 81.1482 38.8199V33.9785H83.1025V46.8149H81.1482V45.66C80.704 46.4151 79.5936 46.9481 78.3944 46.9481C75.5961 46.9481 73.9971 44.9938 73.9971 42.24ZM81.2814 42.24C81.2814 40.4189 80.2154 39.2641 78.6164 39.2641C77.0174 39.2641 75.9959 40.4189 75.9959 42.24C75.9959 44.0166 77.0174 45.2159 78.6164 45.2159C80.2154 45.2159 81.2814 44.0166 81.2814 42.24Z" fill="white"/>
<path d="M93.3186 46.8148H91.3199V45.3047C90.7425 46.2818 89.6765 46.9481 88.344 46.9481C86.3897 46.9481 85.0128 45.66 85.0128 43.7057V37.665H87.0115V43.2171C87.0115 44.3719 87.7222 45.1714 88.877 45.1714C90.4316 45.1714 91.3199 43.8833 91.3199 41.6625V37.665H93.3186V46.8148Z" fill="white"/>
<path d="M94.8731 42.2399C94.8731 39.4416 96.7386 37.5317 99.4924 37.5317C101.713 37.5317 103.312 38.731 103.623 40.5965L101.713 40.9962C101.536 39.9746 100.692 39.264 99.5368 39.264C97.9378 39.264 96.9163 40.4188 96.9163 42.2399C96.9163 44.0609 97.9823 45.2158 99.5368 45.2158C100.692 45.2158 101.491 44.5939 101.713 43.5279L103.668 43.9277C103.268 45.7932 101.713 46.948 99.4924 46.948C96.7386 46.948 94.8731 45.0381 94.8731 42.2399Z" fill="white"/>
<path fill-rule="evenodd" clip-rule="evenodd" d="M113.883 46.8148H111.884V45.6599C111.44 46.415 110.329 46.948 109.13 46.948C106.332 46.948 104.777 44.9937 104.777 42.2399C104.777 39.4861 106.332 37.5317 109.086 37.5317C110.285 37.5317 111.351 38.0647 111.884 38.8198V37.665H113.883V46.8148ZM112.017 42.2399C112.017 40.4188 110.996 39.264 109.397 39.264C107.798 39.264 106.732 40.4188 106.732 42.2399C106.732 44.0609 107.798 45.2602 109.397 45.2602C110.996 45.2602 112.017 44.0609 112.017 42.2399Z" fill="white"/>
<path d="M119.879 46.948C118.147 46.948 116.859 46.0152 116.859 43.9277V39.3528H115.26V37.665H116.859V34.9556H118.858V37.665H121.212V39.3528H118.858V43.8388C118.858 44.7272 119.346 45.2158 120.101 45.2158C120.457 45.2158 120.856 45.1269 121.212 44.9937L121.345 46.7259C120.901 46.9036 120.368 46.948 119.879 46.948Z" fill="white"/>
<path d="M122.722 34.8667C122.722 34.156 123.255 33.5786 124.01 33.5786C124.721 33.5786 125.298 34.156 125.298 34.8667C125.298 35.5774 124.721 36.1548 124.01 36.1548C123.255 36.1548 122.722 35.5774 122.722 34.8667ZM123.033 37.6649H124.987V46.8147H123.033V37.6649Z" fill="white"/>
<path fill-rule="evenodd" clip-rule="evenodd" d="M126.631 42.2399C126.631 39.4861 128.585 37.5317 131.339 37.5317C134.048 37.5317 136.047 39.4861 136.047 42.2399C136.047 44.9937 134.048 46.948 131.339 46.948C128.585 46.948 126.631 44.9937 126.631 42.2399ZM134.048 42.2399C134.048 40.4632 132.938 39.264 131.339 39.264C129.696 39.264 128.585 40.4632 128.585 42.2399C128.585 44.0165 129.696 45.2158 131.339 45.2158C132.938 45.2158 134.048 44.0165 134.048 42.2399Z" fill="white"/>
<path d="M137.513 37.665H139.511V39.1751C140.133 38.198 141.155 37.5317 142.532 37.5317C144.442 37.5317 145.818 38.8198 145.818 40.7741V46.8148H143.82V41.2627C143.82 40.1079 143.109 39.3084 141.954 39.3084C140.444 39.3084 139.511 40.5965 139.511 42.8173V46.8148H137.513V37.665Z" fill="white"/>
<path d="M64.1807 56.9863C64.1807 52.6335 67.201 50.5015 70.4434 50.5015C73.4193 50.5015 75.5513 52.056 76.0399 54.6322L73.9523 55.0319C73.597 53.3885 72.2645 52.3225 70.4434 52.3225C68.045 52.3225 66.3571 54.0104 66.3571 56.9863C66.3571 59.9622 68.045 61.6056 70.399 61.6056C72.531 61.6056 73.9079 60.2731 73.9967 58.4076H69.9549V56.6309H75.9955V63.3378H74.0412V61.6056C73.4637 62.716 71.998 63.471 70.3546 63.471C67.1566 63.471 64.1807 61.2946 64.1807 56.9863Z" fill="white"/>
<path d="M82.3914 55.8758C81.0589 55.8758 79.8597 57.075 79.8597 59.9176V63.3377H77.9053V54.1879H79.8597V55.9202C80.3482 54.8542 81.5475 54.0547 82.6579 54.0547C83.0132 54.0547 83.413 54.0991 83.6795 54.1879L83.5906 56.0978C83.2353 55.9646 82.7911 55.8758 82.3914 55.8758Z" fill="white"/>
<path fill-rule="evenodd" clip-rule="evenodd" d="M83.9022 58.7628C83.9022 56.009 85.8565 54.0547 88.6104 54.0547C91.3198 54.0547 93.3185 56.009 93.3185 58.7628C93.3185 61.4722 91.3198 63.471 88.6104 63.471C85.8565 63.471 83.9022 61.4722 83.9022 58.7628ZM91.3198 58.7628C91.3198 56.9862 90.2093 55.7425 88.6104 55.7425C86.967 55.7425 85.901 56.9862 85.901 58.7628C85.901 60.4951 86.967 61.7387 88.6104 61.7387C90.2093 61.7387 91.3198 60.4951 91.3198 58.7628Z" fill="white"/>
<path d="M102.823 63.3378H100.869V61.7832C100.291 62.7604 99.1809 63.471 97.8928 63.471C95.9385 63.471 94.5616 62.1829 94.5616 60.1842V54.188H96.5159V59.74C96.5159 60.8949 97.271 61.6944 98.4258 61.6944C99.936 61.6944 100.869 60.3619 100.869 58.1855V54.188H102.823V63.3378Z" fill="white"/>
<path fill-rule="evenodd" clip-rule="evenodd" d="M104.777 54.1879H106.732V55.3428C107.265 54.5877 108.331 54.0547 109.574 54.0547C112.284 54.0547 113.883 56.009 113.883 58.7628C113.883 61.5166 112.195 63.471 109.486 63.471C108.375 63.471 107.309 62.9824 106.732 62.2717V66.6245H104.777V54.1879ZM111.884 58.7628C111.884 56.9418 110.862 55.7425 109.263 55.7425C107.664 55.7425 106.598 56.9418 106.598 58.7628C106.598 60.5395 107.664 61.7387 109.263 61.7387C110.862 61.7387 111.884 60.5395 111.884 58.7628Z" fill="white"/>
</g>
<g clip-path="url(#clip1_1808_2419)">
<path d="M13.8842 23.6306C13.8842 18.815 15.4872 14.238 17.6204 10.264L7.48775 0.316406C-2.49598 13.2367 -2.49586 34.025 7.48775 46.9448L17.6204 36.9995C15.4872 33.0254 13.8842 28.4464 13.8842 23.6306Z" fill="white"/>
<path d="M17.6202 10.2632L31.6869 23.6309L17.6202 36.9985C20.8341 42.6714 25.2023 46.9488 25.2023 46.9488L50.2962 23.6309L25.2023 0.312988C25.2023 0.312988 20.8341 4.59038 17.6202 10.2632Z" fill="white"/>
</g>
<defs>
<clipPath id="clip0_1808_2419">
<rect width="111.041" height="66.6246" fill="white" transform="translate(63.959)"/>
</clipPath>
<clipPath id="clip1_1808_2419">
<rect width="50.6347" height="47.0814" fill="white"/>
</clipPath>
</defs>
</svg>
