<svg width="94" height="94" viewBox="0 0 94 94" fill="none" xmlns="http://www.w3.org/2000/svg">
<path d="M27.8347 55.712H33.3039L36.6049 44.2199L39.9302 55.712H45.3629L50.491 35.9019H45.7892L42.3664 50.0085L38.8096 35.9019H34.4001L30.8433 50.0085L27.4327 35.9019H22.7188L27.8225 55.712H27.8347ZM53.658 55.712H58.6034V48.5006H61.9409L65.6317 55.712H71.2592L66.5818 47.8804C69.0545 46.9075 70.2848 45.0955 70.2848 42.4201C70.2848 40.7906 69.8341 39.4164 68.9205 38.2976C67.9948 37.1423 66.6062 36.4248 64.7912 36.1451C63.8168 35.987 62.4038 35.914 60.5401 35.914H53.6458V55.7242L53.658 55.712ZM58.6034 39.9393H60.5036C61.5024 39.9393 62.1724 39.9514 62.5256 39.9758C63.3295 40.0122 63.9386 40.1582 64.3527 40.4014C64.9739 40.7541 65.2785 41.3378 65.2785 42.1647C65.2785 43.1863 64.84 43.8551 63.9751 44.1591C63.4026 44.3659 62.3429 44.4753 60.7716 44.4753H58.5912V39.9393H58.6034Z" fill="white"/>
<path d="M5.88281 69.6253L21.6691 61.1005M73.0965 35.2829L89.4674 26.4419" stroke="white" stroke-width="0.43"/>
<path opacity="0.5" d="M1.30335 57.1974L4.08057 57.1488C4.08057 57.1488 4.05621 57.0393 4.05621 57.015C4.04403 56.9542 4.03184 56.9055 4.03184 56.8934C3.95876 56.5042 3.94658 56.1637 3.9953 55.884C4.09275 55.3611 4.37291 55.0449 4.86014 54.9598C5.42046 54.8503 6.00513 55.0327 6.58981 55.4949C6.79689 55.653 7.12577 55.9813 7.58864 56.4556L7.3572 55.203C7.10141 54.9111 6.80907 54.6436 6.48019 54.3882C5.78588 53.8531 5.10375 53.6586 4.43381 53.7802C4.09275 53.841 3.80041 53.9869 3.56897 54.218C3.34972 54.4247 3.20355 54.7044 3.11828 55.0571C3.03302 55.3976 3.02084 55.8232 3.08174 56.3096H2.18036L1.80276 54.3153L0.791752 54.3396L1.31553 57.1731L1.30335 57.1974ZM3.70296 47.2862C4.12929 47.2862 4.37291 47.3106 4.45817 47.347C4.60434 47.4078 4.66525 47.6146 4.66525 47.9551C4.66525 48.0281 4.66525 48.1253 4.66525 48.2591H5.60317C5.60317 48.0889 5.61535 47.9551 5.61535 47.87C5.61535 47.4322 5.57881 47.0795 5.46918 46.812C5.29865 46.4107 4.99413 46.1796 4.53126 46.131C4.36073 46.1066 4.09275 46.0945 3.72732 46.0945L0.0243616 46.0215L0 47.2011L3.72732 47.2741L3.70296 47.2862ZM4.71397 44.0028L4.89668 42.7259L4.00748 42.3124L4.23892 40.7193L5.21338 40.5734L5.39609 39.2965L0.46287 40.3423L0.280158 41.5949L4.71397 44.0028ZM1.49824 41.1328L3.31318 40.8653L3.16701 41.9111L1.51042 41.1328H1.49824ZM1.60787 34.724L1.2668 35.855L5.79806 37.217L6.13912 36.086L4.2511 35.5145L4.73833 33.9092L6.62635 34.4808L6.96742 33.3498L2.43616 31.9878L2.0951 33.1188L3.81259 33.6417L3.32536 35.2469L1.60787 34.724ZM7.84443 30.9541L8.34385 29.884L6.7847 29.1543L7.12577 28.4368L9.06251 28.376L9.63501 27.1599L7.46683 27.3666C7.50337 26.7343 7.23539 26.2843 6.6629 26.0168C6.30965 25.8465 5.96859 25.81 5.62753 25.8952C5.28647 25.9803 4.99413 26.1992 4.73833 26.564C4.60434 26.7586 4.44599 27.0505 4.2511 27.4518L3.55679 28.9354L7.83225 30.942L7.84443 30.9541ZM4.93322 28.2909L5.12812 27.8774C5.22556 27.6585 5.29865 27.5247 5.34737 27.4518C5.43264 27.2815 5.53008 27.1721 5.62753 27.0991C5.76152 27.0018 5.91987 26.9896 6.10258 27.0748C6.32183 27.1842 6.41928 27.3423 6.4071 27.5612C6.39492 27.7071 6.30965 27.9504 6.1513 28.2787L5.93205 28.753L4.95758 28.2909H4.93322ZM8.19768 22.259L9.33049 20.5444L8.52656 20.0093L6.73598 22.709L10.6826 25.3114L12.5462 22.4901L11.7423 21.955L10.5242 23.7913L9.68373 23.2441L10.6826 21.724L9.87863 21.1889L8.8798 22.709L8.1855 22.2469L8.19768 22.259Z" fill="white"/>
<path d="M15.884 18.3313L16.7244 17.5043L15.5185 16.2761L16.091 15.7167L17.9181 16.3369L18.8804 15.4005L16.7731 14.8411C17.0289 14.2695 16.9437 13.7466 16.493 13.2967C16.225 13.017 15.9205 12.8589 15.5673 12.8224C15.214 12.7859 14.8608 12.8832 14.5075 13.1386C14.3126 13.2723 14.0568 13.4912 13.7401 13.8074L12.5586 14.9505L15.8596 18.3313H15.884ZM14.1056 14.8168L14.4344 14.5006C14.605 14.3303 14.7268 14.2209 14.7877 14.1722C14.9338 14.0506 15.0557 13.9655 15.1653 13.9412C15.3236 13.8925 15.482 13.9412 15.616 14.0871C15.7865 14.2574 15.823 14.452 15.7256 14.6465C15.6647 14.7803 15.4942 14.9749 15.2262 15.2303L14.8486 15.5951L14.0934 14.8168H14.1056ZM19.258 10.2808L20.9268 9.06466L20.3665 8.28636L17.7354 10.1835L20.5127 14.002L23.2533 12.0198L22.693 11.2415L20.9024 12.5305L20.3178 11.7157L21.7916 10.6456L21.2313 9.86728L19.7574 10.9374L19.2702 10.2564L19.258 10.2808ZM24.7759 10.9374L25.9209 10.3416L25.7382 9.38084L27.1634 8.63903L27.8455 9.34436L28.9905 8.74848L25.251 5.36774L24.1304 5.95146L24.7759 10.9496V10.9374ZM25.2144 6.64464L26.4934 7.95802L25.5555 8.44445L25.2144 6.64464ZM31.2318 5.08804L33.6557 6.88785L35.0565 6.40142L32.4498 4.63808L33.5339 1.93836L32.2549 2.37615L31.2196 5.08804H31.2318ZM30.9272 7.83641L32.0479 7.44726L30.5009 2.9842L29.3803 3.37335L30.9272 7.83641ZM37.8946 3.14229L40.0263 5.29477L41.488 5.02723L39.1736 2.88691L40.6597 0.369599L39.332 0.612817L37.8946 3.14229ZM37.176 5.81769L38.3332 5.5988L37.4683 0.953323L36.3111 1.17222L37.176 5.81769ZM43.6683 4.78401L44.8499 4.74753L44.8012 3.03284L45.5929 3.00852L46.5308 4.69889L47.8707 4.65024L46.7014 2.81394C47.286 2.55857 47.5662 2.12077 47.5418 1.4884C47.5297 1.09925 47.4079 0.770909 47.1886 0.51553C46.9572 0.247989 46.6283 0.0898973 46.1898 0.0290926C45.9583 0.00477079 45.6173 -0.00739014 45.1788 0.00477079L43.5344 0.0534145L43.6805 4.77185L43.6683 4.78401ZM44.7281 0.989806H45.1788C45.4102 0.965484 45.5807 0.965484 45.666 0.965484C45.8609 0.965484 46.0071 1.00197 46.1045 1.05061C46.2507 1.12358 46.3359 1.26951 46.3359 1.46408C46.3359 1.7073 46.2507 1.86539 46.0436 1.95052C45.9096 1.99916 45.6538 2.03565 45.2884 2.04781H44.7646L44.7281 0.977645V0.989806ZM51.6224 1.13574L53.6688 1.37896L53.7784 0.430403L50.5627 0.0412536L50.0024 4.73537L53.3643 5.13668L53.4739 4.18813L51.2813 3.92059L51.4031 2.92339L53.2059 3.14229L53.3155 2.19374L51.5128 1.97484L51.6102 1.1479L51.6224 1.13574ZM55.6421 5.4407L56.8358 5.76905C57.2621 5.89066 57.591 5.96362 57.8468 6.00011C58.4193 6.08523 58.9187 6.00011 59.345 5.72041C59.8323 5.40422 60.1611 4.92995 60.3317 4.29758C60.5144 3.62873 60.4657 3.03284 60.1977 2.50992C59.9784 2.09645 59.6495 1.78027 59.211 1.58569C58.9796 1.47624 58.6629 1.37896 58.2853 1.26951L56.9089 0.892518L55.6543 5.4407H55.6421ZM57.7859 2.13293L57.9808 2.18158C58.2244 2.25454 58.3949 2.29102 58.468 2.31535C58.736 2.41263 58.9309 2.53424 59.0527 2.68017C59.2963 2.9842 59.345 3.42199 59.1867 3.99355C59.0405 4.52864 58.7847 4.86914 58.4437 5.00291C58.2244 5.07588 57.9077 5.06372 57.457 4.94211L57.055 4.83266L57.7981 2.13293H57.7859ZM64.7411 3.36119L63.6448 2.91123L61.8421 7.277L62.9384 7.72696L64.7411 3.36119ZM66.6535 5.17316L67.762 5.75689L65.9957 9.07682L67.0433 9.62406L68.8095 6.30413L69.9667 6.91218L70.4174 6.06091L67.1042 4.30974L66.6535 5.161V5.17316ZM73.6575 8.11611L72.683 7.44726L69.9789 11.3266L70.9533 11.9954L73.6575 8.11611ZM76.386 11.3509L77.9573 12.6886L78.5785 11.959L76.1058 9.86728L73.0484 13.4669L75.6308 15.6559L76.252 14.9262L74.571 13.5034L75.2166 12.7373L76.6052 13.9169L77.2264 13.1872L75.8378 12.0076L76.3738 11.3752L76.386 11.3509ZM77.3239 17.2003L78.1035 18.0881L79.3946 16.9449L79.9184 17.5408L79.2119 19.3406L80.1011 20.35L80.7589 18.2826C81.3192 18.5745 81.843 18.5015 82.318 18.0759C82.6103 17.8205 82.7809 17.5165 82.8418 17.176C82.9027 16.8233 82.8052 16.4707 82.5738 16.0937C82.452 15.8991 82.2327 15.6316 81.9404 15.3032L80.8563 14.075L77.3117 17.2003H77.3239ZM80.9294 15.5951L81.2339 15.9356C81.3923 16.118 81.4897 16.2396 81.5506 16.3004C81.6724 16.4463 81.7455 16.5801 81.7577 16.6896C81.7942 16.8598 81.7333 17.0057 81.5872 17.1395C81.4044 17.2976 81.2217 17.3341 81.0268 17.2246C80.905 17.1517 80.7101 16.9814 80.4665 16.7017L80.1255 16.3126L80.9416 15.5951H80.9294ZM84.2426 19.5352L84.9612 20.5689L81.8551 22.7092L82.5251 23.6821L85.6312 21.5418L86.3742 22.6119L87.166 22.0647L85.0343 18.988L84.2426 19.5352Z" fill="white"/>
<path opacity="0.5" d="M89.9808 34.943C90.3219 35.1011 90.6751 35.1255 91.0405 35.016C91.4303 34.9066 91.7105 34.6755 91.881 34.3472C92.0516 34.0066 92.0759 33.6053 91.9419 33.1554C91.7714 32.5595 91.4425 32.1825 90.9675 32.0366C90.6995 31.9515 90.3462 31.9636 89.8955 32.0731L90.1148 32.827C90.6142 32.7419 90.9187 32.8757 91.0284 33.2405C91.0771 33.3986 91.0649 33.5324 91.004 33.6661C90.9431 33.7878 90.8335 33.8729 90.6751 33.9215C90.3462 34.0188 89.9565 33.9215 89.4936 33.6783C89.1038 33.4594 88.5922 33.0946 87.9588 32.5838L87.1914 32.8027L88.105 35.9402L88.9454 35.697L88.3851 33.7756C88.9454 34.335 89.4814 34.7241 89.9686 34.943H89.9808ZM93.0869 38.2387C92.8677 37.8738 92.551 37.6063 92.149 37.4482C91.7227 37.2779 91.2598 37.2293 90.7604 37.3144C90.4193 37.3631 90.1026 37.4847 89.8103 37.6428C89.5058 37.813 89.2743 38.0441 89.0916 38.3116C88.8358 38.7129 88.7384 39.1629 88.8236 39.6615C88.8602 39.9047 88.9454 40.1479 89.0794 40.3547C89.2987 40.7195 89.6154 40.987 90.0174 41.1451C90.4437 41.3154 90.9066 41.364 91.406 41.2789C91.747 41.2302 92.0637 41.1086 92.3561 40.9505C92.6606 40.7803 92.9042 40.5492 93.0747 40.2817C93.3305 39.8804 93.428 39.4304 93.3549 38.9561C93.3184 38.7008 93.2331 38.4575 93.0991 38.2387H93.0869ZM92.2099 39.698C91.9906 39.929 91.6618 40.0749 91.2233 40.1479C90.7847 40.2209 90.4193 40.1722 90.1392 40.0263C89.9443 39.9169 89.8225 39.7466 89.7737 39.5034C89.7372 39.2602 89.7981 39.0534 89.9565 38.8832C90.1757 38.6521 90.5168 38.5062 90.9431 38.4332C91.3816 38.3603 91.747 38.3967 92.0272 38.5548C92.2343 38.6643 92.3561 38.8467 92.3926 39.0899C92.4292 39.321 92.3682 39.5277 92.2099 39.698ZM91.6496 46.2041C91.9419 46.4351 92.283 46.5446 92.6606 46.5324C93.0747 46.5202 93.4036 46.3743 93.6472 46.0946C93.903 45.8028 94.0127 45.4258 94.0005 44.9515C93.9761 44.3313 93.7569 43.8935 93.3427 43.6259C93.0991 43.4678 92.758 43.3949 92.2952 43.3949L92.3195 44.1853C92.8311 44.2218 93.0869 44.4286 93.0991 44.8177C93.0991 44.9758 93.0626 45.1096 92.9651 45.219C92.8677 45.3285 92.7459 45.3771 92.5875 45.3893C92.2464 45.3893 91.8932 45.219 91.5034 44.8542C91.1745 44.538 90.7726 44.0637 90.2853 43.4192L89.4814 43.4435L89.591 46.7027L90.468 46.6783L90.4071 44.6839C90.8213 45.365 91.2233 45.8757 91.6496 46.2041ZM91.4669 51.3968C91.7348 51.6643 92.0637 51.7981 92.4413 51.8346C92.8555 51.8589 93.1965 51.7494 93.4645 51.4941C93.7447 51.2387 93.903 50.8739 93.9396 50.3996C93.9883 49.7794 93.8056 49.3173 93.4158 49.0132C93.1965 48.8308 92.8555 48.7214 92.4048 48.6849L92.3561 49.4753C92.8555 49.5605 93.0991 49.8037 93.0747 50.1807C93.0747 50.3388 93.0017 50.4725 92.9042 50.5698C92.8068 50.6671 92.6728 50.7158 92.5022 50.7036C92.1612 50.6793 91.8201 50.4604 91.4791 50.0591C91.1867 49.7186 90.8335 49.1957 90.4193 48.5025L89.6154 48.4417L89.384 51.7008L90.261 51.7616L90.395 49.7672C90.736 50.4847 91.0893 51.0319 91.4791 51.4089L91.4669 51.3968Z" fill="white"/>
<path d="M9.4375 75.1333L10.278 76.1305L12.8847 74.9631L11.3012 77.3345L12.1416 78.3195L16.5511 76.2035L15.8324 75.3522L12.7263 76.8967L14.7605 74.0875L14.0784 73.2849L10.9601 74.805L13.0065 72.0201L12.2756 71.1567L9.4375 75.1333ZM18.634 78.1614L17.7448 77.3831L14.6143 80.9219L15.5035 81.7002L18.634 78.1614ZM22.7755 82.1259C22.7511 81.6029 22.4344 81.1287 21.8376 80.6909C21.4721 80.4233 21.1067 80.2652 20.7535 80.2288C20.2419 80.1679 19.8399 80.3382 19.5354 80.7638C19.2309 81.1773 19.2065 81.6273 19.4501 82.0894C19.5354 82.2475 19.6816 82.4785 19.913 82.8069C20.2297 83.2568 20.4124 83.5122 20.4489 83.5852C20.522 83.7311 20.522 83.877 20.4246 84.0108C20.2541 84.254 19.9739 84.2419 19.5963 83.9622C19.3039 83.7554 19.1456 83.5365 19.1212 83.3298C19.0969 83.1717 19.17 82.965 19.3405 82.7217L18.4026 82.0407C18.4026 82.0407 18.3538 82.1137 18.3295 82.138C18.0006 82.588 17.9032 83.0258 18.025 83.4757C18.1468 83.9257 18.4757 84.3391 19.0116 84.7283C19.4379 85.0445 19.8399 85.2147 20.2175 85.2269C20.7169 85.2634 21.1067 85.0688 21.4112 84.6553C21.6305 84.3513 21.7157 84.023 21.6548 83.6825C21.6061 83.4149 21.3747 83.0014 20.9484 82.4177C20.6804 82.0529 20.522 81.834 20.4855 81.7489C20.4368 81.6273 20.4368 81.5178 20.5098 81.4327C20.6682 81.2138 20.9118 81.2381 21.2651 81.4935C21.6305 81.761 21.7401 82.0529 21.5818 82.3569L22.4953 83.0258C22.7024 82.7217 22.7998 82.4299 22.7755 82.1502V82.1259ZM27.6478 85.0323C27.5503 84.5216 27.1727 84.0838 26.515 83.7433C26.113 83.5365 25.7354 83.4271 25.37 83.4392C24.8584 83.4392 24.4808 83.6825 24.2372 84.1324C23.9936 84.5824 24.0301 85.0323 24.3346 85.4579C24.4321 85.6039 24.627 85.8106 24.8949 86.1025C25.2725 86.5038 25.4918 86.7349 25.5405 86.7957C25.638 86.9294 25.6501 87.0754 25.5771 87.2213C25.4431 87.4888 25.1629 87.5131 24.7488 87.2942C24.4321 87.124 24.2494 86.9416 24.1884 86.7348C24.1397 86.5768 24.1884 86.37 24.3103 86.1025L23.2871 85.5674C23.2871 85.5674 23.2505 85.6404 23.2262 85.6768C22.9704 86.1633 22.9338 86.6254 23.1165 87.0389C23.2992 87.4645 23.689 87.8293 24.2737 88.1455C24.7488 88.3887 25.1629 88.4982 25.5405 88.4739C26.0399 88.4374 26.4054 88.1942 26.6368 87.732C26.8195 87.3915 26.8439 87.0632 26.7342 86.7348C26.649 86.4795 26.3566 86.1025 25.845 85.5796C25.5283 85.2634 25.3456 85.0566 25.2969 84.9837C25.2238 84.8742 25.2238 84.7648 25.2725 84.6675C25.3943 84.4364 25.6501 84.4121 26.0277 84.6188C26.4297 84.8256 26.5759 85.1053 26.4663 85.4336L27.4651 85.9565C27.6234 85.6282 27.6722 85.3242 27.6234 85.0566L27.6478 85.0323ZM30.8026 86.9781L32.7272 87.7199L33.0683 86.82L30.0352 85.6647L28.3421 90.0791L31.5091 91.2952L31.8502 90.3953L29.7916 89.6048L30.157 88.6684L31.8502 89.313L32.1912 88.4131L30.4981 87.7685L30.8026 86.9902V86.9781ZM33.9574 92.1465L35.0903 92.4018L35.7358 89.5683L37.0148 92.8396L38.0867 93.0829L39.1221 88.4739L37.9893 88.2185L37.3681 90.9425L36.1134 87.7929L34.9928 87.5375L33.9574 92.1465ZM44.4817 89.6535C44.1771 89.2278 43.6655 88.9846 42.9225 88.9238C42.4718 88.8873 42.082 88.9481 41.7532 89.0941C41.2903 89.3008 41.0345 89.6656 40.9979 90.1886C40.9614 90.6993 41.1685 91.0885 41.6192 91.356C41.7653 91.4411 42.0211 91.5627 42.3866 91.7208C42.8982 91.9276 43.1905 92.0613 43.2514 92.0978C43.3976 92.1829 43.4585 92.3046 43.4463 92.4748C43.4219 92.7788 43.1783 92.9004 42.7154 92.864C42.3622 92.8396 42.1064 92.7423 41.9724 92.5721C41.8628 92.4505 41.8262 92.2437 41.8384 91.9397L40.6934 91.8546C40.6934 91.8546 40.6934 91.9397 40.6934 91.9762C40.6569 92.5234 40.8031 92.9612 41.1319 93.2653C41.473 93.5815 41.9724 93.7639 42.6302 93.8125C43.1661 93.849 43.5925 93.7882 43.9213 93.6058C44.3599 93.3747 44.6035 92.9977 44.64 92.487C44.6644 92.11 44.5669 91.7938 44.3355 91.5384C44.1528 91.3438 43.7386 91.1006 43.0565 90.8331C42.6302 90.6628 42.3866 90.5534 42.3135 90.5047C42.2038 90.4318 42.1551 90.3345 42.1673 90.225C42.1917 89.9575 42.4109 89.848 42.8372 89.8724C43.2879 89.9089 43.5316 90.1034 43.5559 90.4439L44.6887 90.5291C44.7009 90.1642 44.6278 89.8724 44.4695 89.6413L44.4817 89.6535ZM50.5112 89.7021C50.1457 89.2643 49.6098 89.0576 48.8911 89.0941C48.5744 89.1062 48.2821 89.1792 48.0263 89.2886C47.5999 89.4711 47.2832 89.7629 47.064 90.1642C46.8204 90.5899 46.7107 91.1006 46.7473 91.6843C46.7838 92.4991 47.0762 93.1193 47.6121 93.545C48.0385 93.8733 48.5622 94.0314 49.1834 93.9949C49.9265 93.9584 50.4624 93.6666 50.7913 93.1193C50.974 92.8032 51.0593 92.4018 51.0471 91.9154L49.963 91.9641C49.9508 92.6451 49.6707 93.0099 49.1469 93.0342C48.7937 93.0464 48.5257 92.9369 48.3186 92.6937C48.0994 92.4383 47.9776 92.0735 47.9532 91.6235C47.9288 91.1128 48.0263 90.7115 48.2455 90.4196C48.4161 90.2007 48.6597 90.0791 48.9764 90.0548C49.4149 90.0305 49.7194 90.2858 49.8656 90.8088L50.9375 90.7601C50.8766 90.3102 50.7426 89.9575 50.5355 89.7021H50.5112ZM53.8852 88.7049L52.7281 88.936L53.666 93.5693L54.8232 93.3382L54.4334 91.4046L56.0778 91.0763L56.4676 93.0099L57.6247 92.7788L56.6868 88.1455L55.5296 88.3766L55.8829 90.1399L54.2385 90.4683L53.8852 88.7049ZM60 92.2802L61.2181 91.8424L61.1572 90.8696L62.6676 90.3102L63.2523 91.0885L64.4704 90.6507L61.2059 86.82L60.0122 87.2578V92.2924L60 92.2802ZM60.9988 88.0847L62.0951 89.544L61.1084 89.9089L60.9988 88.0847ZM66.0173 85.8593L67.9175 84.8864L67.479 84.0351L64.5313 85.5552L66.6994 89.7508L67.747 89.2035L66.8456 87.4645L68.5753 86.5768L68.1368 85.7255L66.4071 86.6132L66.0173 85.8714V85.8593ZM69.4158 84.1081L70.4511 83.3906L72.5828 86.4916L73.5572 85.8228L71.4256 82.7217L72.4975 81.9799L71.9494 81.1895L68.8676 83.3055L69.4158 84.0959V84.1081ZM76.237 78.3438C75.7254 78.2587 75.1895 78.4654 74.6291 78.9519C74.2881 79.2559 74.0566 79.5721 73.9348 79.9126C73.7643 80.399 73.8496 80.8246 74.1906 81.2138C74.5317 81.6029 74.958 81.7245 75.4696 81.5908C75.6401 81.5421 75.9081 81.4448 76.2736 81.2867C76.7851 81.0679 77.0775 80.9462 77.1506 80.9219C77.3089 80.8733 77.4429 80.9219 77.5525 81.0435C77.7474 81.2624 77.6743 81.53 77.3211 81.8462C77.0531 82.0772 76.8095 82.1988 76.6024 82.1745C76.4441 82.1745 76.2614 82.0529 76.0543 81.834L75.1895 82.6001C75.1895 82.6001 75.2504 82.6609 75.2747 82.6853C75.6401 83.0987 76.0543 83.2933 76.5172 83.269C76.98 83.2447 77.4673 83.0136 77.9545 82.5758C78.3565 82.2231 78.6001 81.8705 78.7097 81.5056C78.8437 81.0314 78.7462 80.6057 78.4052 80.2166C78.1494 79.9369 77.857 79.7788 77.5038 79.7666C77.2358 79.7666 76.773 79.9004 76.103 80.1923C75.6889 80.3747 75.4331 80.4841 75.3478 80.4963C75.2138 80.5206 75.1164 80.4963 75.0433 80.4112C74.8728 80.2166 74.9458 79.9734 75.2625 79.6937C75.6036 79.3896 75.9081 79.3532 76.1761 79.5721L77.0288 78.8181C76.773 78.5505 76.5172 78.3925 76.237 78.356V78.3438ZM81.2068 79.4626L81.962 78.5627L80.6465 77.4561L81.158 76.848L83.0461 77.2858L83.9109 76.2643L81.7671 75.9116C81.9742 75.3157 81.828 74.805 81.3408 74.3915C81.0484 74.1361 80.7195 74.0145 80.3785 74.0024C80.0252 74.0024 79.6842 74.1361 79.3553 74.428C79.1726 74.5861 78.9411 74.8293 78.661 75.1698L77.6012 76.4224L81.2189 79.4626H81.2068ZM79.0873 76.1305L79.3796 75.79C79.538 75.6076 79.6354 75.486 79.6964 75.4252C79.8303 75.2793 79.9521 75.1941 80.0496 75.1576C80.2079 75.0968 80.3663 75.1333 80.5125 75.2549C80.6952 75.413 80.7561 75.5954 80.6708 75.8022C80.6221 75.9359 80.4759 76.1427 80.2323 76.4345L79.9034 76.8359L79.0751 76.1427L79.0873 76.1305ZM85.2751 74.6104L85.9573 73.5159L85.3117 72.7863L86.1644 71.4242L87.1145 71.6796L87.7966 70.5851L82.8634 69.5636L82.1934 70.6338L85.2873 74.6104H85.2751ZM83.4724 70.6946L85.2386 71.1689L84.6783 72.0688L83.4724 70.6946ZM85.3361 67.2895L85.872 66.1464L89.2826 67.7395L89.7821 66.6693L86.3714 65.0762L86.9196 63.8966L86.0425 63.4832L84.459 66.8639L85.3361 67.2774V67.2895Z" fill="white"/>
</svg>
