<svg width="94" height="94" viewBox="0 0 94 94" fill="none" xmlns="http://www.w3.org/2000/svg">
<path d="M18.2383 61.3606H26.7374V32.6367H18.2383V61.3606ZM29.9245 61.3606H47.0555V32.6367H29.9245V61.3606Z" fill="white"/>
<path opacity="0.7" d="M75.8055 42.4546V32.6367H47.0547V61.3606H75.8055V46.9655L61.3969 61.3606L54.2922 54.2625L56.5498 52.0071L61.3969 56.8497L75.8055 42.4546Z" fill="white"/>
<path opacity="0.5" d="M2.7013 60.7645H2.5685C2.5353 60.7977 2.50874 60.8442 2.5021 60.8972C2.39586 61.4943 2.41578 62.1045 2.5685 62.6883C2.79426 63.7431 3.83672 64.4131 4.88583 64.1809C4.93231 64.1743 4.97879 64.161 5.02527 64.1477C7.15004 63.4844 5.95485 60.5655 7.68123 60.0348C8.27218 59.8093 8.92953 60.1078 9.15529 60.6982C9.18185 60.7645 9.19513 60.8309 9.20841 60.8972C9.32793 61.4412 9.34785 62.005 9.27481 62.5556V62.6883C9.27481 62.7547 9.34121 62.7547 9.474 62.7547H10.0052C10.0716 62.7547 10.0716 62.6883 10.0716 62.622C10.1778 61.9387 10.1579 61.2422 10.0052 60.5655C9.75952 59.4444 8.65066 58.728 7.52851 58.9735C7.44883 58.9934 7.36251 59.0133 7.28284 59.0398C6.65204 59.2388 6.15405 59.7363 5.95485 60.3665C5.55646 61.4279 5.75566 62.821 4.69327 63.1527C4.16872 63.3384 3.59769 63.0664 3.41177 62.5424C3.39185 62.4827 3.37193 62.4163 3.36529 62.3566C3.24577 61.8989 3.22585 61.4279 3.29889 60.9636V60.8309C3.29889 60.7645 3.23249 60.7645 3.0997 60.7645H2.7013ZM4.62687 52.2734L0.510132 50.5487H0.377334C0.310935 50.5487 0.310935 50.6813 0.310935 50.6813L0.244536 51.3447V51.4111C0.244536 51.4774 0.310935 51.4774 0.377334 51.5437L3.23249 52.5388C3.43169 52.6051 3.63089 52.6715 3.89648 52.7378C3.72385 52.8572 3.55121 52.97 3.36529 53.0695L0.709329 54.7279C0.64293 54.7942 0.576531 54.7942 0.576531 54.8606V54.9269L0.775728 55.5239C0.775728 55.5969 0.835487 55.65 0.908526 55.6566C0.961645 55.6566 1.00812 55.6301 1.04132 55.5903L4.75967 53.0695L7.74763 52.7378C7.82067 52.7378 7.87379 52.6781 7.88043 52.6051L7.81403 52.0081C7.81403 51.9351 7.75427 51.882 7.68123 51.8754L4.62687 52.2734ZM0.974925 41.1952C0.908526 41.1952 0.908526 41.1288 0.842127 41.1288C0.789008 41.1288 0.742529 41.1554 0.709329 41.1952C0.383974 41.6993 0.158217 42.2632 0.0453385 42.8536C-0.187058 43.9283 0.496852 44.9896 1.57252 45.2152C1.619 45.2218 1.65884 45.2351 1.70531 45.2417C3.89648 45.5071 4.02928 42.3892 5.82206 42.5882C6.43957 42.5949 6.93092 43.1057 6.91764 43.7226C6.91764 43.8089 6.90436 43.8951 6.88444 43.9813C6.79812 44.5386 6.56573 45.0626 6.22045 45.5071C6.18061 45.5402 6.16069 45.5867 6.15405 45.6397C6.15405 45.7061 6.22045 45.7061 6.28685 45.7724L6.61884 45.9714C6.68524 45.9714 6.68524 46.0378 6.75164 46.0378C6.81804 46.0378 6.88444 46.0378 6.88444 45.9714C7.28947 45.4208 7.56171 44.784 7.68123 44.114C7.81403 42.7873 7.15004 41.7259 5.88845 41.5932C5.21782 41.507 4.54719 41.7524 4.09568 42.2566C3.29889 43.0526 2.9005 44.3793 1.77171 44.2467C1.04132 44.1803 0.775728 43.6496 0.842127 42.9863C0.915166 42.5086 1.10108 42.0576 1.37332 41.6595C1.41316 41.6264 1.43308 41.5799 1.43972 41.5269C1.43972 41.4605 1.37332 41.4605 1.30692 41.3942L0.974925 41.1952ZM3.43169 31.709C3.43833 31.636 3.41841 31.5631 3.36529 31.51L3.0333 31.2446C2.9669 31.2446 2.9669 31.1783 2.9005 31.1783C2.8341 31.1783 2.8341 31.1783 2.7677 31.2446L1.43972 35.2249C1.37332 35.3575 1.43972 35.3575 1.50612 35.4239L1.97091 35.5565C2.03731 35.5565 2.10371 35.5565 2.10371 35.4902L2.6349 33.9645L8.81001 36.0209C8.87641 36.0209 8.94281 36.0209 8.94281 35.9546L9.14201 35.3575C9.14201 35.2912 9.14201 35.2249 9.07561 35.2249L2.9005 33.1684L3.43169 31.709ZM12.794 25.8714C12.7276 25.805 12.6612 25.8714 12.5948 25.9377L11.2668 28.1268L8.94281 26.7337L10.0052 24.9427C10.0495 24.8542 10.0273 24.7879 9.9388 24.7436L9.5404 24.4783C9.45187 24.4341 9.38547 24.4562 9.34121 24.5446L8.27882 26.3357L6.22045 25.0753L7.48203 23.0189C7.53515 22.9791 7.54843 22.8995 7.50195 22.8398C7.50195 22.8331 7.48867 22.8265 7.48203 22.8199L7.15004 22.4882L7.01724 22.3555C6.95084 22.2892 6.95084 22.3555 6.88444 22.4219L5.15807 25.2743C5.09167 25.3407 5.15807 25.407 5.22446 25.4733L11.3332 29.1882C11.3996 29.2545 11.466 29.1882 11.5324 29.1219L13.2587 26.2694C13.303 26.1809 13.2809 26.1146 13.1924 26.0704L12.794 25.8714ZM14.3875 13.4664C14.3477 13.4133 14.268 13.4 14.2083 13.4465C14.2016 13.4465 14.195 13.4597 14.1883 13.4664L13.7235 13.9307C13.6793 13.975 13.6793 14.0192 13.7235 14.0634L15.4499 17.5793C15.5163 17.7119 15.7155 17.9773 15.8483 18.1763L15.2507 17.7783L11.7316 16.0535C11.6873 16.0093 11.643 16.0093 11.5988 16.0535L11.134 16.5179C11.0809 16.5577 11.0676 16.6373 11.1141 16.697C11.1141 16.7036 11.1273 16.7103 11.134 16.7169L15.9147 22.0238C15.9546 22.0769 16.0342 22.0902 16.094 22.0437C16.1006 22.0437 16.1073 22.0305 16.1139 22.0238L16.5787 21.5595C16.6318 21.5197 16.6451 21.4401 16.5986 21.3804C16.5986 21.3737 16.5853 21.3671 16.5787 21.3605L12.794 17.3139L12.3292 16.8496C12.5416 17.022 12.7608 17.1746 12.9932 17.3139L16.5123 19.105C16.5521 19.1581 16.6318 19.1713 16.6916 19.1249C16.6982 19.1249 16.7049 19.1116 16.7115 19.105L16.9107 18.906C16.955 18.8618 16.955 18.7954 16.9107 18.707L15.1843 15.1248C15.0714 14.8794 14.9121 14.6538 14.7195 14.4614L15.1843 14.9258L19.2347 18.707C19.2745 18.7601 19.3542 18.7733 19.4139 18.7269C19.4206 18.7269 19.4272 18.7136 19.4339 18.707L19.8987 18.2426C19.9518 18.2028 19.9651 18.1232 19.9186 18.0635C19.9186 18.0569 19.9053 18.0503 19.8987 18.0436L14.3875 13.4664ZM29.5929 8.22577L27.9329 8.95547L27.6009 6.50101C27.5345 6.23566 27.4681 5.70497 27.4018 5.43962C27.6009 5.70497 27.8001 6.03665 27.9993 6.302L29.5929 8.22577ZM27.5345 4.37823C27.4814 4.32516 27.4084 4.30526 27.3354 4.31189L26.7378 4.57724C26.6492 4.62147 26.605 4.6878 26.605 4.77625L27.3354 12.0733V12.2723C27.3354 12.3387 27.4018 12.3387 27.4681 12.2723L28.0657 12.007C28.1985 11.9406 28.1985 11.8743 28.1985 11.808L27.8665 9.68518L29.9249 8.8228L31.3193 10.4812C31.3724 10.5343 31.4455 10.5542 31.5185 10.5476L32.1161 10.2822C32.1825 10.2159 32.2489 10.2159 32.2489 10.1495C32.2489 10.0832 32.1825 10.0832 32.1161 10.0169L27.5345 4.37823ZM41.2128 7.62874C41.257 7.58451 41.2792 7.54029 41.2792 7.49606L41.2128 7.42973L38.092 4.70992L39.9512 0.995053C39.9512 0.928716 40.0176 0.928716 40.0176 0.862379C40.0176 0.796042 39.9512 0.796042 39.8848 0.796042L39.4864 0.597032C39.42 0.597032 39.42 0.530695 39.3536 0.530695C39.2872 0.530695 39.2872 0.597032 39.2208 0.663368L37.1624 4.84259L36.4984 1.39307C36.4984 1.3201 36.4387 1.26703 36.3656 1.2604L35.768 1.39307C35.695 1.39307 35.6419 1.45278 35.6352 1.52575L36.8968 8.55745C36.8968 8.63042 36.9566 8.68349 37.0296 8.69013L37.6272 8.55745C37.7002 8.55745 37.7534 8.49775 37.76 8.42478L37.1624 5.10794L40.4824 8.15943C40.5156 8.19923 40.562 8.21913 40.6152 8.22577L40.748 8.09309L41.2128 7.62874ZM50.243 7.36339C50.3094 7.36339 50.3094 7.29705 50.3094 7.23072C50.3094 7.19091 50.2829 7.16438 50.243 7.16438L47.8527 3.7812L50.5086 0.597032C50.5418 0.563863 50.5684 0.517427 50.575 0.464358C50.575 0.398021 50.5086 0.398021 50.5086 0.331684L50.1766 0.0663368C50.1324 0.0221123 50.0881 0 50.0438 0C49.9907 0.00663368 49.9442 0.0331684 49.911 0.0663368L46.9895 3.64853L47.1887 0.132674C47.1887 0.0597032 47.1289 0.00663368 47.0559 0H46.4583C46.3852 0 46.3321 0.0597032 46.3255 0.132674L45.9935 7.23072C45.9935 7.30369 46.0532 7.35676 46.1263 7.36339H46.7239C46.7969 7.36339 46.85 7.30369 46.8567 7.23072L46.9895 3.84754L49.5126 7.5624C49.579 7.62874 49.579 7.69507 49.6454 7.69507C49.7118 7.69507 49.7118 7.69507 49.7782 7.62874L50.243 7.36339ZM56.9493 4.37823L57.6797 1.92377L58.4765 2.18912C59.0741 2.38813 59.8045 2.65347 59.4725 3.7812C59.1405 4.90893 58.4101 4.84259 57.6133 4.64358L56.9493 4.37823ZM58.3437 5.50596C59.2401 5.50596 60.0302 4.90893 60.2693 4.04655C60.8005 2.25545 59.5389 1.79109 58.7421 1.52575L57.1485 1.06139C57.0821 1.06139 57.0157 1.06139 57.0157 1.12773L54.891 7.96042C54.891 8.02676 54.891 8.09309 54.9574 8.09309L55.555 8.2921C55.6213 8.2921 55.6878 8.2921 55.6878 8.22577L56.6173 5.10794L57.3477 5.30695L58.0117 9.08815C58.0117 9.16112 58.0715 9.21419 58.1445 9.22082L58.8085 9.28716C58.8749 9.28716 58.9413 9.28716 58.9413 9.22082V9.08815L58.3437 5.50596ZM67.042 12.1396C67.1084 12.0733 67.042 12.007 66.9756 11.9406L64.718 10.6802L66.046 8.2921L67.9052 9.35349C67.9937 9.39772 68.0601 9.37561 68.1044 9.28716L68.37 8.88914C68.4142 8.80069 68.3921 8.73435 68.3036 8.69013L66.4444 7.62874L67.6396 5.57229L69.698 6.76636C69.7378 6.81943 69.8175 6.83269 69.8772 6.78626C69.8839 6.78626 69.8905 6.77299 69.8971 6.76636L70.2291 6.43467C70.2623 6.4015 70.2889 6.35507 70.2955 6.302C70.2955 6.24893 70.269 6.20249 70.2291 6.16933L67.3076 4.51091C67.2412 4.44457 67.1748 4.51091 67.1084 4.57724L63.5892 10.7466C63.5228 10.8129 63.5892 10.8792 63.6556 10.9456L66.5108 12.604C66.5993 12.6482 66.6657 12.6261 66.71 12.5377L67.042 12.1396ZM72.0219 15.2575L76.0059 10.8792L76.4706 11.2773C77.4002 12.1396 77.5994 12.9357 76.0059 14.6604C74.7443 16.0535 73.6819 16.7169 72.5531 15.6555L72.0219 15.2575ZM75.9395 9.81785C75.8996 9.76478 75.8199 9.75152 75.7602 9.79795C75.7535 9.79795 75.7469 9.81122 75.7403 9.81785L70.9595 15.1248C70.9064 15.1646 70.8931 15.2442 70.9396 15.3039C70.9396 15.3105 70.9529 15.3172 70.9595 15.3238L71.8891 16.1862C73.5491 17.6456 74.9435 17.3139 76.6699 15.4565C78.861 13.0684 78.0642 11.808 76.9354 10.8129L75.9395 9.81785ZM79.5914 23.4832C79.6445 23.4434 79.6578 23.3638 79.6113 23.3041C79.6113 23.2975 79.5981 23.2909 79.5914 23.2842L78.9938 22.4882L83.8409 19.0387L84.4385 19.8347C84.4784 19.8878 84.5581 19.9011 84.6178 19.8546C84.6245 19.8546 84.6311 19.8413 84.6377 19.8347L84.9697 19.5694C85.0229 19.5296 85.0361 19.45 84.9897 19.3903C84.9897 19.3836 84.9764 19.377 84.9697 19.3704L83.3098 17.0486C83.2699 16.9955 83.1902 16.9822 83.1305 17.0287C83.1238 17.0287 83.1172 17.0419 83.1106 17.0486L82.7786 17.3139C82.7254 17.3537 82.7122 17.4333 82.7586 17.493C82.7586 17.4997 82.7719 17.5063 82.7786 17.5129L83.3762 18.309L78.529 21.7585L77.9314 20.9624C77.8916 20.9094 77.8119 20.8961 77.7522 20.9425C77.7455 20.9425 77.7389 20.9558 77.7322 20.9624L77.4002 21.2278C77.3471 21.2676 77.3338 21.3472 77.3803 21.4069C77.3803 21.4135 77.3936 21.4202 77.4002 21.4268L79.0602 23.7486C79.1001 23.8017 79.1797 23.8149 79.2395 23.7685C79.2461 23.7685 79.2528 23.7552 79.2594 23.7486L79.5914 23.4832ZM89.2857 28.2595C89.2857 28.3258 89.3521 28.3922 89.4849 28.3922H90.0825C90.1488 28.3922 90.1488 28.3258 90.0825 28.2595L88.3561 24.412C88.2897 24.2793 88.2233 24.2793 88.1569 24.3456L87.6921 24.5446C87.6257 24.611 87.5593 24.611 87.6257 24.7436L88.2897 26.2031L82.3802 28.9229C82.3138 28.9892 82.2474 28.9892 82.3138 29.1219L82.5794 29.7189C82.6458 29.7852 82.6458 29.8516 82.7786 29.7852L88.6881 27.0654L89.2857 28.2595ZM86.1649 37.8783C86.2313 37.8783 86.2977 37.812 86.2313 37.7457L86.0321 36.8169L91.8752 35.4239L92.0744 36.3526C92.0744 36.4189 92.1408 36.4853 92.2072 36.4189L92.6056 36.2863C92.672 36.2863 92.7384 36.2199 92.672 36.1536L92.008 33.3674C92.008 33.3011 91.9416 33.2348 91.8752 33.3011L91.4768 33.4338C91.4104 33.4338 91.344 33.5001 91.4104 33.5664L91.6096 34.4952L85.7665 35.8882L85.5673 34.9595C85.5673 34.8932 85.5009 34.8268 85.4345 34.8932L85.0361 35.0259C84.9697 35.0259 84.9033 35.0922 84.9697 35.1585L85.6337 37.9447C85.6337 38.011 85.7001 38.0773 85.7665 38.011L86.1649 37.8783ZM87.2273 46.4358C87.3003 46.4358 87.3535 46.3761 87.3601 46.3031L87.2937 43.716L90.0161 43.6496L90.0825 45.7724C90.0825 45.8609 90.1267 45.9051 90.2152 45.9051H90.6801C90.7686 45.9051 90.8128 45.8609 90.8128 45.7724L90.7464 43.6496L93.1368 43.5833L93.2032 45.9714C93.2032 46.0378 93.2032 46.1041 93.336 46.1041L93.8008 46.2368H93.9336C93.9336 46.2368 94 46.2368 94 46.1041L93.9336 42.7873C93.9336 42.7143 93.8738 42.6612 93.8008 42.6546L86.6961 42.8536C86.6231 42.8536 86.5699 42.9133 86.5633 42.9863L86.6297 46.3031C86.6297 46.3916 86.674 46.4358 86.7625 46.4358H87.2273ZM90.3481 52.8705L92.8712 53.4012L92.7384 54.1972C92.6056 54.7942 92.4064 55.5239 91.2776 55.3249C90.1489 55.1259 90.0825 54.3299 90.2817 53.6002L90.3481 52.8705ZM89.4185 54.3962C89.538 55.2851 90.202 55.9949 91.0784 56.1873C92.9376 56.5853 93.2696 55.2586 93.4024 54.4625L93.7344 52.8041C93.7344 52.7378 93.7344 52.6715 93.6016 52.6715L86.6297 51.2784C86.5633 51.2784 86.4969 51.2784 86.4969 51.4111L86.3641 52.0081C86.3641 52.0744 86.3641 52.1408 86.4969 52.1408L89.6841 52.8041L89.5513 53.5338L85.8329 54.5952C85.7599 54.5952 85.7068 54.6549 85.7001 54.7279V55.3913C85.7001 55.4576 85.7001 55.5239 85.7665 55.5239H85.8993L89.4185 54.3962ZM89.3521 65.6071C89.3454 65.6801 89.3653 65.7531 89.4185 65.8061L89.7505 66.0715C89.8169 66.0715 89.8169 66.1378 89.8833 66.1378C89.9497 66.1378 90.0161 66.1378 90.0161 66.0715L91.5432 62.1576C91.6096 62.0249 91.5432 62.0249 91.4768 61.9586L91.012 61.7596C90.939 61.753 90.866 61.7729 90.8128 61.8259L90.2152 63.3517L84.1729 60.9636C84.0999 60.9569 84.0269 60.9768 83.9737 61.0299L83.7745 61.6269C83.7679 61.6999 83.7878 61.7729 83.8409 61.8259L89.8833 64.2141L89.3521 65.6071Z" fill="white"/>
<path d="M13.1265 75.7573L12.1305 74.5632L14.0561 73.7008C14.3084 73.5416 14.574 73.4089 14.8529 73.3028C14.7201 73.5018 14.5209 73.7672 14.3217 74.0325L13.1265 75.7573ZM12.7945 78.4771C12.8388 78.4329 12.8388 78.3886 12.7945 78.3444L12.5289 78.0127L15.6497 73.1038C15.7028 73.064 15.7161 72.9844 15.6696 72.9247C15.6696 72.9181 15.6563 72.9114 15.6497 72.9048L15.3177 72.5068C15.2734 72.4625 15.207 72.4404 15.1185 72.4404L9.74016 74.6959L9.47456 74.3642C9.4303 74.32 9.38603 74.32 9.34176 74.3642L9.07617 74.6295C9.0319 74.6738 9.0319 74.718 9.07617 74.7622L10.2714 76.1553C10.3156 76.1995 10.3599 76.1995 10.4041 76.1553L10.6697 75.8899C10.714 75.8457 10.714 75.8015 10.6697 75.7573L10.2714 75.2929L11.4665 74.7622L12.6617 76.2216L11.9313 77.283L11.5329 76.8187C11.4887 76.7744 11.4444 76.7744 11.4001 76.8187L11.1345 77.084C11.0903 77.1282 11.0903 77.1725 11.1345 77.2167L12.3297 78.6098C12.374 78.654 12.4183 78.654 12.4625 78.6098L12.7945 78.4771ZM16.7785 82.3246C16.8227 82.2804 16.8227 82.2362 16.7785 82.1919L16.4465 81.8603L16.5129 79.4721L18.5712 79.4058L18.9032 79.7375C18.9696 79.8038 19.036 79.8038 19.036 79.7375L19.3016 79.4721C19.368 79.4058 19.368 79.3395 19.3016 79.3395L18.04 78.1454C17.9736 78.0791 17.9072 78.0791 17.9072 78.1454L17.708 78.4107C17.6638 78.455 17.6638 78.4992 17.708 78.5434L18.04 78.8751L15.9817 78.9414L18.704 76.0226C18.7572 75.9828 18.7704 75.9032 18.724 75.8435C18.724 75.8369 18.7107 75.8302 18.704 75.8236L17.9072 75.0276C17.8408 74.9612 17.7744 74.9612 17.7744 75.0276L17.5088 75.2929C17.4424 75.3593 17.4424 75.4256 17.5088 75.4256L17.9072 75.8236L14.1889 79.8038L13.7905 79.4721C13.7241 79.4058 13.6577 79.4058 13.6577 79.4721L13.3921 79.7375C13.3257 79.8038 13.3257 79.8702 13.3921 79.8702L14.6537 81.0642C14.7201 81.1306 14.7865 81.1306 14.7865 81.0642L15.0521 80.7989C15.1185 80.7325 15.1185 80.6662 15.0521 80.6662L14.6537 80.3345L15.7825 79.0741L15.6497 81.9266C15.6497 81.9929 15.6497 82.0593 15.7161 82.0593L16.3137 82.6563C16.3579 82.7005 16.4022 82.7005 16.4465 82.6563L16.7785 82.3246ZM21.2272 85.7078C21.2936 85.6415 21.2936 85.5751 21.2272 85.5751L20.8288 85.3098L20.6296 82.9217L22.688 82.6563L23.0864 82.9217C23.1528 82.988 23.2192 82.988 23.2192 82.9217L23.4184 82.6563C23.4848 82.59 23.4848 82.5236 23.4184 82.5236L22.024 81.4622C21.9576 81.3959 21.8912 81.3959 21.8912 81.4622L21.692 81.7276C21.6521 81.7608 21.6521 81.8205 21.692 81.8603L22.024 82.1256L19.9656 82.4573L22.356 79.2068C22.4091 79.167 22.4224 79.0874 22.3759 79.0277C22.3759 79.021 22.3626 79.0144 22.356 79.0078L21.4264 78.3444C21.36 78.2781 21.2936 78.2781 21.2936 78.3444L21.0944 78.6098C21.028 78.6761 21.028 78.7424 21.0944 78.7424L21.5592 79.0741L18.372 83.4523L17.9736 83.1207C17.9072 83.0543 17.8408 83.0543 17.8408 83.1207L17.6416 83.386C17.5752 83.4523 17.5752 83.5187 17.6416 83.5187L19.036 84.5137C19.1024 84.5801 19.1688 84.5801 19.1688 84.5137L19.368 84.2484C19.4344 84.1821 19.4344 84.1157 19.368 84.1157L18.9696 83.784L19.9656 82.4573L20.1648 85.3098C20.1648 85.3761 20.1648 85.4425 20.2312 85.4425L20.8952 85.9732C20.9284 86.013 20.9882 86.013 21.028 85.9732L21.2272 85.7078ZM24.1488 87.4989C24.2152 87.4326 24.1488 87.3662 24.0824 87.3662L23.5512 87.1009L24.8791 84.9118C25.2111 84.8454 25.7423 84.5801 26.0079 84.7127C26.0942 84.7592 26.1606 84.8255 26.2071 84.9118H26.2735L26.6719 84.6464C26.7118 84.6464 26.7383 84.6199 26.7383 84.5801C26.8047 84.5137 26.6055 84.3147 26.4063 84.2484C25.9415 83.983 25.4103 84.2484 25.0783 84.3147C25.1447 84.1157 25.2775 83.7177 25.0783 83.585L24.3479 83.187C24.2816 83.1207 24.2152 83.187 24.2152 83.2533L24.016 83.5187C23.9496 83.585 24.016 83.6514 24.0824 83.6514L24.4807 83.9167C24.4276 84.0958 24.3612 84.2749 24.2816 84.4474L22.8872 86.7692L22.4224 86.5038C22.356 86.4375 22.2896 86.5038 22.2896 86.5702L22.0904 86.8355C22.024 86.9019 22.0904 86.9682 22.1568 86.9682L23.684 87.8969C23.7504 87.9633 23.8168 87.8969 23.8168 87.8306L24.1488 87.4989ZM27.4023 86.7692C27.6015 86.3712 28.1327 85.6415 28.9295 85.9732C29.7263 86.3048 29.4607 87.1672 29.2615 87.5652L27.4023 86.7692ZM28.8631 89.4227V89.3563C28.4581 89.4293 28.0464 89.3829 27.6679 89.2236C27.0238 88.8787 26.7782 88.076 27.1234 87.4259C27.15 87.3795 27.1699 87.3397 27.2031 87.2999L29.5935 88.4276C29.6599 88.4939 29.7263 88.4276 29.7927 88.2949C30.1247 87.5652 30.6559 86.1722 29.2615 85.5088C28.1991 85.0444 27.2031 85.6415 26.6055 86.8355C26.0079 88.0296 26.2735 89.2237 27.4023 89.7543C27.8804 89.96 28.4116 90.0263 28.9295 89.9534V89.887L28.8631 89.4227ZM34.3742 91.7445C34.3742 91.6781 34.3742 91.6118 34.3078 91.6118L33.7766 91.4791C33.7633 91.2934 33.8098 91.1076 33.9094 90.9484L35.5694 85.9068C35.5694 85.8405 35.5694 85.7741 35.503 85.7741L34.3742 85.4425C34.3078 85.4425 34.2414 85.4424 34.2414 85.5088L34.1086 85.8405C34.1086 85.9068 34.1086 85.9732 34.175 85.9732L34.7062 86.1722L34.175 87.8969C33.9161 87.5785 33.5708 87.353 33.179 87.2335C32.1166 86.9019 31.3863 87.8306 30.9879 89.0246C30.6559 90.086 30.7223 91.2801 31.6518 91.6118C32.1565 91.7644 32.6943 91.7444 33.179 91.5454C33.179 91.6781 33.1126 91.9435 33.3782 92.0098L34.175 92.2751C34.2414 92.2751 34.3078 92.2751 34.3078 92.2088L34.3742 91.7445ZM33.2454 90.8157C32.8603 91.028 32.4022 91.0745 31.9838 90.9484C31.3199 90.7494 31.4527 89.887 31.7182 89.1573C31.9838 88.2949 32.3822 87.4989 33.1126 87.7642C33.4845 87.8372 33.8165 88.0561 34.0422 88.3613L33.2454 90.8157ZM37.7606 92.5405C37.7606 92.4742 37.7606 92.4078 37.6942 92.4078L37.0302 92.2751L37.827 88.693C37.827 88.6266 37.827 88.5603 37.7606 88.5603L36.499 88.2949C36.4326 88.2949 36.3662 88.2949 36.3662 88.3613L36.2998 88.693C36.2998 88.7593 36.2998 88.8256 36.3662 88.8256L37.0966 88.9583L36.4326 92.1425L35.7686 92.0098C35.7022 92.0098 35.6358 92.0098 35.6358 92.0761L35.5694 92.4078C35.5694 92.4742 35.5694 92.5405 35.6358 92.5405L37.6278 92.9385C37.6942 92.9385 37.7606 92.9385 37.7606 92.8722V92.5405ZM38.3582 87.0345C38.4113 86.7427 38.2386 86.464 37.9598 86.3712C37.6676 86.2982 37.3688 86.4773 37.2958 86.7692C37.2227 87.0611 37.402 87.3596 37.6942 87.4326C37.9863 87.4856 38.2652 87.3131 38.3582 87.0345ZM41.9437 93.0048C41.8773 92.9385 41.9437 92.9385 41.9437 93.0048C41.8109 92.9385 41.4125 93.1375 40.9477 93.0712C40.4829 93.0049 40.4829 92.6068 40.4829 92.2751L40.8149 89.688L42.0101 89.887C42.0765 89.887 42.1429 89.887 42.1429 89.8207L42.3421 89.489V89.4227C42.3421 89.3829 42.3155 89.3563 42.2757 89.3563L40.9477 89.1573L41.1469 87.7642V87.6316H41.0805L40.5493 87.6979C40.4962 87.7045 40.4497 87.7311 40.4165 87.7642L40.2173 89.0246L39.5533 88.9583C39.5135 88.9583 39.4869 88.9848 39.4869 89.0246L39.4205 89.3563C39.4205 89.4227 39.4205 89.489 39.4869 89.489L40.1509 89.5553L39.8189 92.1425C39.6994 92.5007 39.7459 92.8921 39.9517 93.2039C40.1443 93.4626 40.4298 93.6284 40.7485 93.6682C41.1801 93.7346 41.6183 93.6682 42.0101 93.4692V93.4029L41.9437 93.0048ZM45.4629 93.4692C45.4629 93.4029 45.4628 93.3365 45.3301 93.3365H44.6661L44.7989 89.688C44.7989 89.6217 44.7989 89.5553 44.6661 89.5553L43.3381 89.489C43.2717 89.489 43.2053 89.489 43.2053 89.6217V89.9534C43.2053 90.0197 43.2053 90.086 43.3381 90.086H44.0685L43.9357 93.3365H43.2717C43.2053 93.3365 43.1389 93.3365 43.1389 93.4692V93.8009C43.1389 93.8672 43.1389 93.9336 43.2717 93.9336L45.2637 93.9999C45.3301 93.9999 45.3965 93.9999 45.3965 93.8672L45.4629 93.4692ZM45.0645 87.8969C45.0844 87.5851 44.8453 87.3198 44.5333 87.2999C44.2212 87.28 43.9556 87.5188 43.9357 87.8306C43.9158 88.1424 44.1548 88.4077 44.4669 88.4276C44.759 88.3944 44.9981 88.1822 45.0645 87.8969ZM47.5212 91.3464C47.5212 90.8821 47.654 90.0197 48.5172 89.9534C49.3804 89.887 49.5132 90.7494 49.5132 91.2801L47.5212 91.3464ZM50.0444 93.0048C49.9116 92.9385 49.4468 93.3365 48.8492 93.3365C47.7868 93.4029 47.5212 92.4078 47.5212 91.8108L50.1772 91.6781C50.31 91.6781 50.2436 91.6118 50.2436 91.4791C50.2436 90.6831 50.0444 89.2237 48.4508 89.29C47.322 89.3563 46.658 90.3514 46.7244 91.6781C46.7908 93.0048 47.5212 93.9336 48.7828 93.9336C49.3206 93.9402 49.8385 93.7545 50.2436 93.4029V93.3365L50.0444 93.0048ZM53.8955 92.9385C53.8955 92.8722 53.8291 92.8058 53.7627 92.8722L53.1651 92.9385L52.8331 90.4177C53.0323 90.1524 53.2979 89.6217 53.5635 89.6217C53.6764 89.6283 53.7893 89.6548 53.8955 89.688C53.9354 89.688 53.9619 89.6615 53.9619 89.6217L54.0947 89.1573V89.091C54.0947 89.0246 53.8291 88.9583 53.6299 89.0246C53.0987 89.091 52.8331 89.6217 52.6339 89.9534C52.5675 89.7543 52.4347 89.3563 52.1692 89.3563L51.3724 89.489C51.306 89.489 51.2396 89.5553 51.306 89.6217L51.3724 89.9534C51.3724 90.0197 51.4388 90.086 51.5052 90.0197L51.97 89.9534C52.0364 90.086 52.1028 90.3514 52.1692 90.484L52.5675 93.1375L52.0364 93.2039C51.97 93.2039 51.9036 93.2702 51.97 93.3365L52.0364 93.6682C52.0364 93.7346 52.1028 93.8009 52.1692 93.7346L53.9619 93.4692C54.0283 93.4692 54.0947 93.4029 54.0283 93.3365L53.8955 92.9385ZM60.2034 91.6118C60.2034 91.5454 60.137 91.5454 60.0706 91.5454L59.5394 91.6781C59.473 91.4791 59.4067 91.3464 59.3403 91.1474L58.6099 88.0959C58.6099 88.0296 58.5435 88.0296 58.4771 88.0296L57.4147 88.2949C57.3483 88.2949 57.3483 88.3613 57.3483 88.4276L57.4147 88.7593C57.4147 88.8256 57.4811 88.8256 57.5475 88.8256L58.0787 88.693L58.7427 91.4791C58.497 91.7909 58.1783 92.043 57.8131 92.2088C57.4811 92.3547 57.0827 92.2088 56.9366 91.8705C56.91 91.8108 56.8901 91.7444 56.8835 91.6781L56.1531 88.693C56.1531 88.6266 56.0867 88.6266 56.0203 88.6266L54.9579 88.892C54.8915 88.892 54.8915 88.9583 54.8915 89.0246L54.9579 89.3563C54.9579 89.4227 55.0243 89.4227 55.0907 89.4227L55.6219 89.29L56.2195 91.8108C56.3523 92.4742 56.6179 93.1375 57.8795 92.8058C58.331 92.6732 58.7294 92.3946 59.0083 92.0098C59.0747 92.0761 59.2075 92.4078 59.473 92.3415L60.2034 92.1425C60.2698 92.1425 60.2698 92.0761 60.2698 92.0098L60.2034 91.6118ZM65.6482 89.6217C65.6482 89.5553 65.5818 89.5553 65.5154 89.5553L65.0506 89.7543L64.121 87.3662C63.8554 86.7692 63.5898 86.1058 62.5938 86.5038C62.0759 86.736 61.6576 87.1274 61.3986 87.6316C61.3322 87.4989 61.133 87.2336 60.9338 87.2999L60.0706 87.6316C60.0042 87.6316 60.0042 87.6979 60.0042 87.7642L60.137 88.0959C60.137 88.1623 60.2034 88.1623 60.2698 88.1623L60.7346 87.9633C60.8475 88.1225 60.9405 88.3016 61.0002 88.4939L61.9298 91.0147L61.465 91.2138C61.3986 91.2138 61.3986 91.2801 61.3986 91.3464L61.5314 91.6781C61.5314 91.7444 61.5978 91.7445 61.6642 91.7445L63.3242 91.1474C63.3906 91.1474 63.3906 91.0811 63.3906 91.0147L63.2578 90.6831C63.2578 90.6167 63.1914 90.6167 63.125 90.6167L62.6602 90.8157L61.6642 88.2286C61.8435 87.8107 62.1755 87.479 62.5938 87.2999C63.0586 87.1009 63.2578 87.4326 63.3906 87.7642L64.453 90.6167C64.453 90.6831 64.5194 90.6831 64.5858 90.6831L65.6482 90.285C65.7146 90.285 65.7146 90.2187 65.7146 90.1524L65.6482 89.6217ZM68.5697 85.1108C68.4436 84.9118 68.3772 84.6796 68.3705 84.4474V84.0494H67.7729C67.7065 84.1157 67.7065 84.2484 67.7065 84.5137C67.3281 84.4408 66.9297 84.4872 66.5777 84.6464C65.5154 85.1771 65.5154 86.3048 66.1794 87.5652C66.7769 88.693 67.6401 89.091 68.3705 88.693C68.7689 88.474 69.0744 88.1225 69.2337 87.6979C69.413 87.95 69.5657 88.2153 69.6985 88.4939C69.8977 88.9583 70.0969 89.4227 69.3001 89.8207C68.9017 89.9932 68.4701 90.086 68.0385 90.086C68.0385 90.086 67.9721 90.1524 68.0385 90.1524V90.6167C68.1049 90.7494 69.0345 90.6167 69.6321 90.3514C70.3758 90.0728 70.7542 89.2436 70.4754 88.5006C70.4289 88.3812 70.3691 88.2684 70.2961 88.1623C70.0969 87.6979 69.4993 86.8355 69.3001 86.3712L68.5697 85.1108ZM68.9017 87.1672C68.7291 87.5254 68.4768 87.8438 68.1713 88.0959C67.6401 88.3613 67.1753 87.8969 66.7105 87.1009C66.2458 86.3048 66.2458 85.5751 66.9097 85.2434C67.1753 85.0975 67.4741 85.0312 67.7729 85.0444L68.9017 87.1672ZM71.5577 83.1207C71.6019 83.1649 71.6462 83.1649 71.6905 83.1207L72.0225 82.9217C72.0667 82.8774 72.0667 82.8332 72.0225 82.789L71.5577 82.1256C71.5577 82.0593 71.4913 82.0593 71.3585 82.0593C70.98 82.1057 70.6148 82.2384 70.2961 82.4573C69.6852 82.8022 69.4661 83.5718 69.8114 84.1821C69.8379 84.2285 69.8645 84.2749 69.8977 84.3147C70.6945 85.4425 72.2217 84.1157 72.8193 84.9118C73.0251 85.2169 72.9388 85.6282 72.6333 85.8338C72.6333 85.8338 72.6267 85.8338 72.6201 85.8405C72.3611 85.9731 72.0955 86.0859 71.8233 86.1722L71.4913 85.7078C71.447 85.6636 71.4027 85.6636 71.3585 85.7078L71.0265 85.9068C70.9822 85.951 70.9822 85.9953 71.0265 86.0395L71.4913 86.7692C71.6241 86.9019 72.4209 86.6365 72.8857 86.3712C73.5297 86.0262 73.7754 85.2235 73.4301 84.5734C73.4036 84.527 73.3837 84.4872 73.3505 84.4474C72.5537 83.2533 71.0265 84.6464 70.4289 83.8504C70.1633 83.5187 70.3625 83.187 70.6281 82.988C70.8937 82.789 71.0929 82.789 71.1593 82.7226L71.5577 83.1207ZM76.6704 82.789C76.6261 82.7448 76.5819 82.7448 76.5376 82.789L76.0728 83.1207L74.4792 81.1306C74.4394 80.7458 74.5124 80.3544 74.6784 80.0028C74.8112 79.8702 74.944 79.9365 74.944 79.8702V79.8038L74.8112 79.3395V79.2731C74.7448 79.2068 74.5456 79.2731 74.3464 79.4058C73.948 79.7375 74.0144 80.3345 73.948 80.6662C73.8152 80.5335 73.4833 80.2682 73.2841 80.4008L72.6201 80.9315C72.5758 80.9758 72.5758 81.02 72.6201 81.0642L72.8193 81.3296C72.8635 81.3738 72.9078 81.3738 72.9521 81.3296L73.3505 80.9979C73.5231 81.1107 73.6758 81.2433 73.8152 81.3959L75.4752 83.4523L75.0768 83.784C75.0326 83.8283 75.0326 83.8725 75.0768 83.9167L75.276 84.1821C75.3203 84.2263 75.3646 84.2263 75.4088 84.1821L76.8032 83.0543C76.8475 83.0101 76.8475 82.9659 76.8032 82.9217L76.6704 82.789ZM76.2056 79.0078H76.272C76.4048 78.6363 76.604 78.298 76.8696 78.0127C77.0622 77.7009 77.4738 77.6081 77.7859 77.8004C77.8722 77.8535 77.9453 77.9265 77.9984 78.0127L78.1976 78.2781C77.7992 78.6761 76.4712 80.0028 77.6 81.1306C77.9519 81.6215 78.6358 81.7342 79.1272 81.376C79.2002 81.3229 79.2666 81.2632 79.3264 81.1969C79.6849 80.8254 79.8775 80.3212 79.8576 79.8038C79.9904 79.8702 80.256 80.0692 80.4551 79.9365L80.9863 79.4058C81.0527 79.3395 81.0527 79.2731 80.9863 79.2731L80.7207 79.0078C80.6544 78.9414 80.588 78.9414 80.588 79.0078L80.256 79.3395C79.9572 79.2134 79.7048 79.0078 79.5256 78.7424L78.3304 77.482C77.7992 76.9513 77.2016 76.8187 76.4048 77.5484C76.0064 77.9464 75.5416 78.7424 75.6744 78.8751C75.7076 78.9083 75.7541 78.9348 75.8072 78.9414L76.2056 79.0078ZM79.4592 79.5385C79.4924 79.9431 79.3728 80.3411 79.1272 80.6662C78.8682 80.9249 78.4499 80.9249 78.1909 80.6662C78.171 80.6463 78.1511 80.6264 78.1312 80.5999C77.4672 79.9365 78.3968 79.0078 78.6624 78.7424L79.4592 79.5385ZM83.3767 75.6909H83.3103C83.2107 75.9961 83.0779 76.2813 82.9119 76.5533C82.5799 76.9513 82.2479 76.7523 81.9823 76.487L79.9904 74.8286L80.7871 73.8998C80.8535 73.8335 80.8535 73.7672 80.7871 73.7672L80.588 73.4355C80.588 73.3957 80.5614 73.3691 80.5215 73.3691C80.4551 73.3028 80.4552 73.3691 80.3888 73.4355L79.5256 74.4969L78.4632 73.5682C78.4189 73.5239 78.3746 73.5239 78.3304 73.5682C78.3304 73.608 78.3038 73.6345 78.264 73.6345L78.0648 74.0989V74.2315L78.9944 75.0276L78.5296 75.5583C78.4632 75.6246 78.5296 75.6246 78.596 75.6909L78.8616 75.8899C78.928 75.8899 78.928 75.9563 78.9944 75.8899L79.4592 75.3593L81.4511 77.0177C81.7101 77.2631 82.0288 77.4223 82.3807 77.482C82.6994 77.4489 82.9916 77.2764 83.1775 77.0177C83.5095 76.6197 83.7751 75.9563 83.6423 75.8899C83.6025 75.8899 83.5759 75.8634 83.5759 75.8236L83.3767 75.6909Z" fill="white"/>
</svg>
