<svg id="Logos" xmlns="http://www.w3.org/2000/svg" viewBox="0 0 634 356"><defs><style>.cls-1{fill:#38414b;}</style></defs><title>Logos_HSF_Kooperation</title><g id="layer1"><g id="g20076"><path id="path19828" class="cls-1" d="M385.48,152.08a17.56,17.56,0,0,0-10.22-2.91,18.28,18.28,0,0,0-10.87,3.57V126.62H351.48v85.21h12.91v-44.5c0-3.06,2.63-6.49,7.44-6.71a8,8,0,0,1,6.64,3.14c1.61,2.33,1.53,5.54,1.53,9l-.07,39.1h12.91V172.29c0-11.67-1.46-15.83-7.36-20.21"/><path id="path19830" class="cls-1" d="M280.43,181.34a99.59,99.59,0,0,1-.37,11.38c-.43,4.67-2.4,9.55-7.8,9.55s-7.52-5.25-7.73-9.77c-.08,0-.37-2.85-.37-11.16s.29-11.82.37-11.82c0-4.74,2.48-9.41,7.73-9.41s7.73,4.67,7.8,9.34C280.06,169.52,280.43,173,280.43,181.34Zm12.47-10.07c-1.82-18.17-12.18-22.1-20.64-22.1-12,0-19.33,7.66-20.65,22.1-.14,1.17-.29,3.28-.36,10.07-.07,5,.29,9,.36,10.06.81,13.5,8.54,21.74,20.65,21.74S292.1,204.75,293,191.4c.07-.94.29-5.1.29-10.06,0-2.27-.15-8.32-.37-10.07"/><path id="path19832" class="cls-1" d="M414.44,173.68c.07-2.85.07-3.43.14-4.23.37-5.11,2.63-9.34,7.88-9.34,6.2-.07,7.66,6,7.88,9.34.15,1.82.22,3,.22,4.23Zm16,17.07a19.66,19.66,0,0,1-.14,2.11c-.37,3-1.53,9.41-7.81,9.41-5.4,0-7.44-4.88-7.8-9.7-.08-1.39-.3-2.92-.3-8.17h28.82s0-4.3-.07-6.86c0-1-.08-2.7-.3-6.27-.43-5.47-2.48-11.45-5.61-15.25a18.08,18.08,0,0,0-14.74-6.85c-11.67,0-19,7.58-20.35,22.1a78.54,78.54,0,0,0-.37,10.07c0,5,.3,9.12.37,10.06.73,13.28,8.61,21.74,20.35,21.74s19.48-8.24,20.35-22.39h-12.4"/><path id="path19834" class="cls-1" d="M210.4,83.15h210l80.24,94-80.24,92.64H210.4l-80.61-92.94Zm215-10.44H205.29L116,176.45l89.36,103.08h220l89-102.72-89-104.1"/><path id="path19836" class="cls-1" d="M213,138.22h6.06c6.64,0,10.28,3.5,10.43,9.78,0,.51.07,1,.07,2a14.14,14.14,0,0,1-.07,2c-.37,3.72-2,10.21-9.78,10.21H213Zm30.57,68.28-1.31-20.86c-.59-9.34-3-14.88-7.88-17.73,3.5-2.11,8-7.29,7.95-18.16,0-16.49-10.29-22.32-22.4-22.47H200.26v84.55H213l.07-38.66h7.08c4.08,0,8.68,3.57,9.41,13.64l1.31,19.77a38.14,38.14,0,0,0,.66,5.25h12.77a26.77,26.77,0,0,1-.66-5.33"/><path id="path19838" class="cls-1" d="M330.62,190.16a19.49,19.49,0,0,1-.15,2.34c-.36,4.74-2,9.77-7.8,9.77-5.33,0-7.44-5.47-7.88-9.48-.22-2.41-.15-4.3-.22-11.45a88.53,88.53,0,0,1,.36-11.82c.44-5.33,2.48-9.41,7.74-9.41,5.47-.07,7.73,4.67,7.8,9.34,0,.07.15,1.16.22,3.64h12.77c0-.87-.08-1.6-.08-2-1.46-17.65-12.25-22-20.71-22-12,0-19.34,7.66-20.65,22.1-.14,1.17-.29,3.28-.36,10.07-.08,5,.29,9,.36,10.06.8,13.5,8.54,21.74,20.65,21.74,12.54.08,19.47-7.58,20.71-21.74,0-.51.08-.87.08-1.24H330.62"/></g></g></svg>