<svg id="Logos" xmlns="http://www.w3.org/2000/svg" viewBox="0 0 634 356"><defs><style>.cls-1{fill:#606873;}.cls-2{fill:#38414b;}.cls-3,.cls-4{fill:#fff;}.cls-3{opacity:0.2;}</style></defs><title>Logos_HSF_Kooperation</title><path class="cls-1" d="M119.72,231.78c.65-.8,1.26-2,4.58-2.82,0,0,112.62-38.25,262.45-30.6,0,0,8.51-.31,6.2,3.41-1.36,2.18-3.89,2.32-8.69,2.57a64.53,64.53,0,0,1-8,.18s15.32,5.95-45.16,4.71c0,0,5.34,5.45-16.9,3.88,0,0-62-2.82-187.39,19.9,0,0-9.86,2.13-7.09-1.23Z"/><path class="cls-2" d="M246.93,108s-7.46-9.4-6.2,1.44A320.43,320.43,0,0,1,238,160.25a15.23,15.23,0,0,0-1.79-3.32s-6.5-8.66-13.8-6.26c0,0-9.3,2.93-14.68,17,0,0-3.81,9.7-2.72,17,0,0-.36,19.2,23,5.63a31.27,31.27,0,0,0,5.37-4.44c-.56,2.4-1.47,4-1.57,6.43,0,0-.83,5.07,1.49,6.34.88.49,1.83-.18,3.89-5.11,0,0,16.62-42.62,17.5-60.21,0,0,5.84-8.74-7.78-25.25Zm-29,76.7s-1.72-1.14-1.61-6.29a30.09,30.09,0,0,1,6.55-16.11s1.7-2.15,3.08-2.41c.46-.09,1.2.59,1.55,3.32.09.67-1.85.81-1.14,2.95,0,0,3.23,8.18,10,4.49-.28,1.68-.59,3.37-.91,5.07-3.55,4.92-11,13.44-17.56,9Zm86.34-34.6s13.51,14.38,12.95,24.35c0,0-1.84,13.86-24.78,13.39,0,0-5.68-.85-.1-4.49,0,0,14.92-4.83,5.14-22.76,0,0-9.23,10.85-15.35,16.85l.05.05c-17.49,17.06-20.93,10.79-20.93,10.79-6.66-9.52-1.78-30.37-1.78-30.37,2.58-11,8.29-7.13,8.29-7.13,8.34,1.36,5.22,8.57,5.22,8.57-1.06,5.54-2.41,4.92-2.41,4.92-2.58,2.09-3.12,11.21-3.12,11.21,1,5-3.44,12,9.5.8,3.08-3.09,18.58-20.54,21.05-27.41,0,0,2.58-6.69,6.27,1.23Zm-20-21.29a6.52,6.52,0,0,1-3,4.91c-2.25,1.69-6.89,4.58-8.38,4.19s.19-5.18.27-6.52a23.72,23.72,0,0,1,.4-4c.48-3.26,3.1-5.63,6-5.32s5.07,3.34,4.7,6.77Zm95.28,18.6c4-5.29,6.8-2.9,6.8-2.9.38.22,1.18,0,1.51-.06,5.31-.41.95,4.82.95,4.82-4.47,6.08-8.53,17.45-8.53,17.45a63,63,0,0,0-2,6.72c-1.62,6.91,5.65,2,5.65,2a22,22,0,0,0,2.49-2.24,3.06,3.06,0,0,1,1.55-.88c1.52-.21-1.06-8.12-1.06-8.12-1.11-3.13-.91-3.27-.91-3.27-.71-3.83,1.42-4.82,1.42-4.82,2.28-1.39,4.11,2.24,4.11,2.24,2,3.1,3.84,11.25,3.84,11.25,1.73,7.22-3.68,6.66-3.68,6.66-2.25.44-6.09,4.26-6.09,4.26-6,4.94-14.3,5.42-14.3,5.42-8.27.29-7.61-7-7.61-7-.06-7.88,15.87-31.56,15.87-31.56ZM346.3,157.84c3.81,2.66,10.2,8.56,9.15,14.72,0,0-1.85,13.87-24.79,13.39,0,0-2.5-.13-2.55-1.68,0-1.14.48-2.05,2.45-2.81,0,0,14.92-4.82,5.15-22.75l-8.87,6.87s-3.62,4-3.36-1.68c0,0,.32-3.13,1.66-4.33,0,0,8.33-4.91,11.09-12.59,1.38-5.06,8.8-9.35,9.52-5.08.32,1.92-1.89,3.12-3,4.49-2.48,3.11.71,9.67,3.53,11.45ZM198.39,185.53a.91.91,0,0,0-.28-.49c-.61-.42-3.65,1-6.65,2.76-.48.29-.92.53-1.32.76a26.24,26.24,0,0,0-2.6,1.74s-1.94,1.55-1.73-1.92a.66.66,0,0,0,0-.14h0c0-.78.18-1.75.23-2.8,0,0,2.66-10.61,3.81-13.58,0,0,.63-2.8,1.62-6,0,0,4.52-4.71-3.79-6.23,0,0-4-9.76-8.25,5.61h0a7.44,7.44,0,0,0-4-5,4.63,4.63,0,0,0-2-.52c-.33,0-.55.05-1.28,0,0,0-4-1.38-8.25,4-4.54,5-17.77,20.86-14.75,34.15,0,0,1.63,6.87,7.75,6.84a22.25,22.25,0,0,0,14.19-5.7,38.77,38.77,0,0,0,3.8-4,15.65,15.65,0,0,0,.43,2.6c0,.18.08.35.13.51a5.08,5.08,0,0,0,1.49,2.71,5.58,5.58,0,0,0,4.8,1.19c.24-.05.49-.11.75-.19,0,0,8.55-2.07,8.34-5.71-.1-1.79.55-2.15.55-2.15a.79.79,0,0,0,.35-.93s6.82-4.57,6.59-7.45Zm-24.66,5.05a9.46,9.46,0,0,1-3.2,3.58s-9.36,5.73-9-2.36a35.58,35.58,0,0,1,1.85-8.65s4.31-11,11-17.34c.61-.62,1.15-.68,1.49-.22.93,1.28,1.09,2.73,1.8,3.92.18.31.39.64.61,1-.8,4.11-2.85,11.9-3.2,17.79a10.4,10.4,0,0,1-1.31,2.33Zm-65.26-44.41c1.8,3.28-.6,8.49-.6,8.49C97.49,175.88,84.52,226,81.93,236.22h0l-.16.44c-.23.92-.36,1.42-.36,1.42-.17.75-.35,1.43-.53,2.06a28,28,0,0,0-.45,5.81h0c.09,2.71,0,5.49-.85,5.87-2.33,1.06-3.54-2.06-4.18-5.46-2.29-.53-4.16-3.49-4.16-3.49-8.42-5.64-2.13-21.3-2.13-21.3,5.72-22.69,34-70.53,34-70.53,3.32-5.35,4.7-6,5.32-4.85Zm43,80.21c4.49,6.26,7.92,10.68,7,11.5-3,2.66-16.8-8.08-16.8-8.08-23.91-19.83-34.48-45.1-36.8-51.25a1.83,1.83,0,0,1,.34-1.69c.82-.91,2.12-1.41,5.58-1.8h0c-1.81-.88-2.38-1.11-2.22-1.72.34-1,3.69-1,3.69-1,2.65-.12,4.57-.28,4.57-.28,3.87-.42,5.84-.78,5.84-.78,8.25-1.31,11.49-4.9,11.49-4.9,8.16-8.27-4.95-16.56-4.95-16.56-33.23-19.1-60-10-60-10a6.4,6.4,0,0,1-4.16-.1c-3.48-1.16,2.71-6.1,2.71-6.1,16.49-13.65,25.14-9.56,25.14-9.56,32,2.13,46.11,18.87,46.11,18.87,11.16,11.8,8.27,21.22,6.77,24-5.46,10-18.4,10.23-18.4,10.23-2,.12-3.78.17-5.34.18a17.75,17.75,0,0,1,2.58,4.65c2.48,7.79,26.87,44.43,26.87,44.43Zm299.89-45.82s17.54,14.46-4.22,13.72c0,0-4.23.32-6.82-8.39,0,0-7.48-17.08-6.93-23.54a48.58,48.58,0,0,0-7.25,11.33,39.38,39.38,0,0,1-3.89,7.35,25.62,25.62,0,0,1-3.07,3.8c-9.61,8.91-10.54-2.47-10.54-2.47-2-9.7,3-25.26,3-25.26,3.62-10.74,8.93-6.32,8.93-6.32,7.37,1.92,4.39,9,4.39,9-1.58,5.41-3,4.24-3,4.24-1.82,1.2-2.31,3.79-2.44,5.43,0,0-.69,6,2,1.41,2-4.11,5.94-11,8.79-13.15,0,0,4.19-4.46,6.65-.78,0,0,10.57,21.25,14.4,23.61Z"/><path class="cls-1" d="M403.13,199.24c4.58.29,9.73.35,16.87,1,3.7.36,9.42.36,10.24,2.76.74,2.21-2.06,4.48-7,5.45a26.07,26.07,0,0,1-6.4.82c-2.69-.09-8.46.12-8.63-3-.12-1.95-3.89-1.93-6.41-2-5-.2-4.52-1.62-3.43-3.34.66-1,2-1.73,4.8-1.71Z"/><path class="cls-1" d="M557.92,123a2.65,2.65,0,0,0-2.65-2.65l-83.08,0a2.66,2.66,0,0,0-2.65,2.65l0,83.07a2.65,2.65,0,0,0,2.65,2.65h83.07a2.65,2.65,0,0,0,2.65-2.65Z"/><path class="cls-3" d="M546,176.73c-1.33-3.14-1.7-7.15-1.92-10.43-3.12,6.94-7.8,17.63-13.09,16.81-3.16-.49-3.39-6-2.64-11.28-2.1,4.51-4.1,9.18-6.51,12,0,0-.18.23-.57.68-.59.71-2,2.33-3.4,2.67a3.14,3.14,0,0,1-.41.07,3.57,3.57,0,0,1-1.29-.08c-1.06-.33-2.05-1.39-2.92-3.38a8.77,8.77,0,0,1-.4-1.12c-.11-.53-.2-1-.26-1.56a20.37,20.37,0,0,1-3.17,4.08,29.33,29.33,0,0,1-12.92,7.49c-4.43,1.26-9.86,2.31-14.24.15s-5.22-7.35-3.25-11.72c.73-1.62,1.18-.65.88,1.21a17.46,17.46,0,0,0-.24,2c-.35,11.22,17,5.88,21.83,3.12a27.18,27.18,0,0,0,6.72-5.36,18.34,18.34,0,0,0,4.46-10c1-8.4-9.48-8.33-14.42-8.13a1.44,1.44,0,0,1-.47-.06c-.56,1.52-1.15,3-1.76,4.54-1.19,2.93-2.28,5.38-3.45,8.32a40.57,40.57,0,0,1-4,7.71c-.91,1.27-1.62.85-1.55-.66.11-2.65,1.54-5.58,2.53-7.95,1.12-2.71,2.3-5.39,3.43-8.1a99.66,99.66,0,0,0,5.7-16.51,1.24,1.24,0,1,1,2.44.38,52.35,52.35,0,0,1-1.3,6A74,74,0,0,0,504.4,151c1.38-2.38,4.37-8.78.65-10.73-3.05-1.59-7.16,1-9.51,2.86a33.94,33.94,0,0,0-7.61,8.23c-1,1.25-1.66.53-1.16-.46a30.75,30.75,0,0,1,8.66-10c3-2.25,7.82-5.26,11.39-2.72,4.05,2.89,2.5,8.89.57,12.68a91.14,91.14,0,0,1-6.52,10c4.82,0,10.69.65,13.4,5.16a9.68,9.68,0,0,1,.73,1.48c1.2-3.24,2.52-5.93,3.47-8a97.64,97.64,0,0,1,10.2-18.19c.65-1,1.63.11,1.06,1.1-6.59,11.52-10.93,20.33-13.64,31.14-.22.9-.4,1.79-.47,2.29l0,.08c-.26,2-.39,4.7.5,6.36a2.21,2.21,0,0,0,.59.74h0c1.16.89,2.63-.7,3.37-1.7a45.41,45.41,0,0,0,5.08-8.13,90.33,90.33,0,0,0,6.46-15.51c.47-1.71,2.52-1.35,2.42.62a63.54,63.54,0,0,1-1.6,9.26c-.41,2.1-3.05,14.75,1.08,10.82C538,174.13,541,167.27,544,161.15c.54-1.11,2-.91,2.19.53.57,4.68.64,9,2.13,13.45C549,177.16,546.85,178.69,546,176.73Z"/><path class="cls-4" d="M497.75,166.59a3.29,3.29,0,0,0,1.69-3V162c0-1.82-.74-4.9-5.73-4.9H476.57v20.57H494c3.77,0,6.21-1.85,6.21-4.7v-2.31C500.19,168.55,499.37,167.22,497.75,166.59Zm-2.11-3c0,.84-.26,1.8-2.31,1.8h-13v-5h13.1c.36,0,2.17.07,2.17,1.45Zm-15.27,5.11h12.89c2.49,0,3.14.45,3.14,2.2v1.4c0,1.24-.46,2-2.74,2H480.37Zm28.14,5.61h15.06v3.32H504.71V157.05h3.8Zm42.3-17.26v15.11c0,4.73-2.87,5.68-7.5,5.68h-8.95c-4.63,0-7.5-1-7.5-5.68V157.05h3.8v15.08c0,1.45.25,2.4,3.62,2.4h9.11c3.37,0,3.62-.95,3.62-2.4V157.05Z"/><polygon class="cls-2" points="312.61 232.55 310.22 232.55 310.22 240.31 300.08 240.31 300.08 232.55 297.69 232.55 297.69 250.46 300.08 250.46 300.08 242.69 310.22 242.69 310.22 250.46 312.61 250.46 312.61 232.55"/><path class="cls-2" d="M318,241.5c0,4.78,4.18,9,9.55,9,6.57,0,10.15-4.18,10.15-9a9.43,9.43,0,0,0-9.55-9.55A10,10,0,0,0,318,241.5Zm3,0a6.9,6.9,0,0,1,7.16-7.16c3.58,0,6.56,3,6.56,7.16a6.26,6.26,0,0,1-6.56,6.57c-4.18,0-7.16-2.39-7.16-6.57Z"/><polygon class="cls-2" points="354.99 232.55 339.47 232.55 339.47 234.94 346.04 234.94 346.04 250.46 348.42 250.46 348.42 234.94 354.99 234.94 354.99 232.55"/><polygon class="cls-2" points="369.91 232.55 359.76 232.55 359.76 250.46 369.91 250.46 369.91 248.07 362.16 248.07 362.16 242.69 369.32 242.69 369.32 240.31 362.16 240.31 362.16 234.94 369.91 234.94 369.91 232.55"/><polygon class="cls-2" points="377.67 232.55 375.29 232.55 375.29 250.46 386.03 250.46 386.03 248.07 377.67 248.07 377.67 232.55"/><path class="cls-2" d="M399.16,233.74A6.47,6.47,0,0,0,395,232c-3.59,0-5.38,2.39-5.38,4.78,0,5.37,7.76,5.37,7.76,9.55a3.25,3.25,0,0,1-3,2.38,6.09,6.09,0,0,1-4.78-3v3.58c1.19,1.2,3,1.2,4.78,1.2,3,0,5.37-1.8,5.37-4.78,0-5.37-7.76-5.37-7.76-9a2.72,2.72,0,0,1,3-2.39c1.19,0,2.39.6,4.18,1.79v-2.39Z"/><path class="cls-2" d="M425.42,241.5a6,6,0,0,1-2.38,3l-2.39-3c2.39-1.79,3.58-3,3.58-4.77,0-2.39-1.79-4.18-4.77-4.18a4.08,4.08,0,0,0-4.18,4.18,5.44,5.44,0,0,0,1.79,4.18c-2.39,1.78-4.18,3.58-4.18,5.37,0,2.38,1.79,4.18,4.77,4.18,1.2,0,3-.6,5.38-2.39l2.38,2.39h3l-3.58-4.18a53.08,53.08,0,0,0,3-4.78Zm-4.18,4.78a5.15,5.15,0,0,1-3.58,1.79c-1.19,0-2.38-.6-2.38-1.79s1.19-2.39,3.58-3.58l2.38,3.58Zm-3.58-9.55a1.58,1.58,0,0,1,1.8-1.79c1.19,0,2.38.59,2.38,1.79s-.6,1.79-2.38,3a3.28,3.28,0,0,1-1.8-3Z"/><path class="cls-2" d="M442.14,232.55v17.91h3v-7.77h.6c1.79,0,2.39.6,4.77,4.19l2.39,3.58h3.58c-1.79-1.8-1.79-2.39-3-3.58a16.42,16.42,0,0,0-3.58-4.78c1.79-1.19,3-2.39,3-4.77,0-3-2.39-4.78-6-4.78Zm3,2.39h1.19c3,0,3.58.59,3.58,2.39s-.59,3-3.58,3h-1.19v-5.37Z"/><polygon class="cls-2" points="470.79 232.55 460.64 232.55 460.64 250.46 470.79 250.46 470.79 248.07 463.03 248.07 463.03 242.69 470.79 242.69 470.79 240.31 463.03 240.31 463.03 234.94 470.79 234.94 470.79 232.55"/><path class="cls-2" d="M484.52,233.74a5.44,5.44,0,0,0-4.18-1.79c-3,0-5.37,2.39-5.37,4.78,0,5.37,7.76,5.37,7.76,9.55a2.7,2.7,0,0,1-3,2.38c-1.79,0-3-1.19-4.78-3v3.58a8.87,8.87,0,0,0,5.38,1.2,4.4,4.4,0,0,0,4.77-4.78c0-5.37-7.76-5.37-7.76-9a2.73,2.73,0,0,1,3-2.39,6.49,6.49,0,0,1,4.18,1.79v-2.39Z"/><path class="cls-2" d="M489.89,241.5c0,4.78,3.58,9,9.55,9s9.55-4.18,9.55-9c0-5.37-3.58-9.55-9.55-9.55a9.42,9.42,0,0,0-9.55,9.55Zm2.38,0a7.17,7.17,0,0,1,14.33,0c0,4.18-3,6.57-7.16,6.57s-7.17-2.39-7.17-6.57Z"/><path class="cls-2" d="M514.36,232.55v17.91h3v-7.77h1.19c1.19,0,2.39.6,4.78,4.19l2.38,3.58h3a39.8,39.8,0,0,1-2.39-3.58c-1.79-2.39-2.39-3.59-4.18-4.78,1.79-1.19,3-2.39,3-4.77,0-3-2.38-4.78-6-4.78Zm3,2.39h1.79c2.38,0,3,.59,3,2.39s-.6,3-3,3h-1.79v-5.37Z"/><polygon class="cls-2" points="544.21 232.55 528.69 232.55 528.69 234.94 535.25 234.94 535.25 250.46 537.64 250.46 537.64 234.94 544.21 234.94 544.21 232.55"/><path class="cls-2" d="M557.34,233.74a5.43,5.43,0,0,0-4.18-1.79c-3,0-5.37,2.39-5.37,4.78,0,5.37,7.76,5.37,7.76,9.55a2.69,2.69,0,0,1-3,2.38,6.07,6.07,0,0,1-4.78-3v3.58c1.79,1.2,3,1.2,5.37,1.2a4.39,4.39,0,0,0,4.77-4.78c0-5.37-7.76-5.37-7.76-9a2.73,2.73,0,0,1,3-2.39c1.19,0,2.39.6,4.17,1.79v-2.39Z"/></svg>