<svg id="Logos" xmlns="http://www.w3.org/2000/svg" viewBox="0 0 634 356"><defs><style>.cls-1{fill:#fff;}.cls-2{fill:#606873;}.cls-3{fill:#38414b;}</style></defs><title>Logos_HSF_Kooperation</title><path class="cls-1" d="M164.6,114v59.6c-.8,25.66-15.79,50.61-39.74,62a93.25,93.25,0,0,1-19.2,6.45c-16-4.1-31-12-42-25.9-11.7-14.45-16.2-32.56-15.6-52V114H164.6"/><path class="cls-2" d="M49,114.89V164.2c-.64,20.67,4.54,37.94,15.4,51.36,9.79,12.37,23.69,20.95,41.3,25.52a93.43,93.43,0,0,0,18.79-6.33c23-10.95,38.38-35,39.2-61.18V114.89H49"/><path class="cls-1" d="M160.28,118.23l-.57,56c-1.19,21.35-11.57,41.34-30.25,53.23-7.14,4.71-15.14,7.28-23.25,9.66-14.8-4-29.06-11.07-39.11-24.36-10-12.47-13.81-27.42-14.25-43.82l-.53-50.67h108"/><path class="cls-2" d="M152.34,121.79h4.4l0,46c.55,24.44-11.09,47.57-33.13,59.22a78.74,78.74,0,0,1-17.52,6.79c-14.68-3.69-28.21-11.82-37.82-25-7.81-10.7-11.44-23.09-12.09-36.73V121.8h96.18"/><path class="cls-1" d="M106.41,148.12l.55-.25,15.12-14.78q-3.14,8.15-6.56,16.23L107,170l-.5.9-.55-.55-8.36-21-6.71-16.57h.29l15.23,15.28"/><path class="cls-1" d="M106,171.36l-.1.25C93.37,176.68,81,182,68.35,186.58c4.72-5,10-9.9,14.77-15.07l-.1-.45c-5-5.13-9.4-9.56-14.23-14.78l.1-.1c12.44,5.13,24.68,9.95,37.07,15.18"/><path class="cls-1" d="M144.28,156.48c-4.48,4.88-9.51,9.9-14.33,14.68v.35l14.52,14.68c-1.79-.3-3.73-1.45-5.57-1.85L107,171.51l.39-.35,6.27-2.34,25.88-10.45a26.37,26.37,0,0,1,4.73-1.89"/><path class="cls-1" d="M111.49,184.34l8.26,20.6a40.72,40.72,0,0,1,1.79,4.73c-5.08-4.38-10.15-10.1-15.23-14.88-5.32,4.88-10.1,10.6-15.47,15.08A37.18,37.18,0,0,1,92.68,205l2.68-6.72,11-26.13.2-.1c1.79,4,3.18,8.26,5,12.29"/><path class="cls-3" d="M273.44,173.49s-.88-49.61-.88-49.61l-.05-2.42H256.16l-.64,1.51c-2.76,6.57-13.56,36.6-20.11,57.42-2.63-8-6.82-18.93-10.93-29.61-4.4-11.48-8.57-22.33-10-27.51l-.49-1.81H197.23l.24,2.68a115.86,115.86,0,0,1,.49,13s-1,36.3-1,36.3c-.17,4-.35,10.51-.57,20.49l-.06,2.51h12.91l0-2.47,0-5.18c-.05-6.62-.08-9.64.08-15.21,0,0,.17-18.54.29-31.33,6.73,17.11,16.51,43.34,18.37,52.17l.4,1.94,13.56.09.54-1.75c5-16.4,11.93-37.34,18.13-53.08l.58,31.94c0,2.39.1,4.55.17,6.64.13,3.91.26,7.95.16,13.74l-.05,2.5h12.64l-.11-2.56c-.31-7.17-.42-14-.51-20.4"/><path class="cls-3" d="M302.91,187.3a7.47,7.47,0,0,1-5.43-2.15,8.4,8.4,0,0,1-2.35-5.92,10.2,10.2,0,0,1,2.93-7.41c2.62-2.62,6.88-4,12.33-4a25.05,25.05,0,0,1,4.72.5v4.62c0,7.92-5.47,14.37-12.2,14.37m23.52-14.37V161.32c0-4.83-.58-11-5.1-15.48-4-4-10.28-6-19.11-6A68.11,68.11,0,0,0,291,141.08l-2.06.34V153l3-.67,1.05-.23a42.1,42.1,0,0,1,9.15-1.38c5.2,0,8.84,1,10.83,3a7.54,7.54,0,0,1,2,4.5c-1.16-.11-2.33-.21-3.48-.21-17.1,0-28.15,8.42-28.15,21.46A18.88,18.88,0,0,0,288.59,193a18.23,18.23,0,0,0,13,5.17,20.6,20.6,0,0,0,14.17-6,21.25,21.25,0,0,0,.27,2.34l.38,2h11.08l-.34-2.76C326.43,187.6,326.43,181.13,326.43,172.93Z"/><path class="cls-3" d="M350,177.65v-43c0-6.5.14-11.3.49-16.57l.19-3-12.64,1.68.11,2.26c.39,8,.53,16.9.53,22.52v36.11c0,5.26-.08,10.74-.24,16.27l-.08,2.53h13l-.36-2.77a124,124,0,0,1-1-16"/><path class="cls-3" d="M381,185.77c-1.18-1.17-1.72-3.6-1.72-7.62V151.87h9.51l.22-2.21.59-5.91.29-2.95-2.95.25-.45,0c-2.47.21-4.29.37-7.18.42.06-2.7.24-5.48.54-8.7l.31-3.21-12.39,2.18.33,2.35a42.58,42.58,0,0,1,0,6.68c0,.25,0,.48,0,.73H359.7l-.22,2.21-.59,5.91-.3,3,3.45-.32c2.17-.21,3.69-.35,5.89-.41v27c0,6.77,1.52,11.58,4.66,14.71,3.94,3.94,9.74,4.49,15.42,4.49h2.45V187.3H388c-3.92,0-6-.44-7-1.53"/><path class="cls-3" d="M430.3,160.14h-22c1-3.93,4-9.45,11.6-9.45,6.8,0,9.4,5.1,10.39,9.45m-10.49-20.28c-17.4,0-23.72,15.54-23.72,26,0,10.15,2.93,18.22,8.7,24a29.42,29.42,0,0,0,21,8.28,68.56,68.56,0,0,0,10-.94l.53-.07,2.11-.31V185.9l-2.84.45a59.23,59.23,0,0,1-9.07,1c-13.59,0-17.17-8.94-18.3-16.83h34.25V168c0-.37,0-.77,0-1.19s.05-1,.05-1.47c0-5.82-2-14-7.44-19.5A20.83,20.83,0,0,0,419.81,139.86Z"/><path class="cls-3" d="M472.61,164.41l-1.37-1c-1.09-.78-2.17-1.51-3.21-2.21-3.69-2.49-7.17-4.85-7.17-6.91a2.45,2.45,0,0,1,.76-1.82c.68-.68,2.49-1.82,7-1.82a46.27,46.27,0,0,1,8,.94l2.89.52V141.3l-2-.4a46.36,46.36,0,0,0-9.36-1c-7.52,0-18.7,3.83-18.7,14.37,0,8.72,7.4,13.5,13.92,17.72l.53.34c5.12,3.33,10,6.46,10,10.19,0,1.79-1.66,4.82-7.87,4.82-3,0-6.05-.94-9.22-1.93l-2.39-.73-3.16-.92v11.52l1.77.52a47.14,47.14,0,0,0,13.19,2.37c2.9,0,10.17-.52,14.91-5.26a14.41,14.41,0,0,0,4.09-10.59c0-9-7-13.91-12.66-17.87"/><path class="cls-3" d="M525.53,160.14h-22c1-3.93,4.05-9.45,11.6-9.45,6.8,0,9.41,5.1,10.4,9.45M515,139.86c-17.41,0-23.72,15.54-23.72,26,0,10.15,2.93,18.22,8.7,24a29.4,29.4,0,0,0,21,8.28,68.69,68.69,0,0,0,10-.94l.52-.07,2.11-.31V185.9l-2.83.45a59.23,59.23,0,0,1-9.07,1c-13.59,0-17.18-8.94-18.3-16.83h34.24V168c0-.37,0-.77.05-1.19s0-1,0-1.47c0-5.82-2-14-7.45-19.5A20.79,20.79,0,0,0,515,139.86Z"/><path class="cls-3" d="M573.06,139.86a22.13,22.13,0,0,0-15.64,6.71,30.3,30.3,0,0,0,.06-3.4l-.15-2.57-12,1.2.39,2.56a224.62,224.62,0,0,1,1.93,22.78c0-.11,0,10.51,0,10.51,0,4.75-.07,10.33-.21,16.59l-.06,2.58,12-.27-.25-2.63a92.31,92.31,0,0,1-.28-12.18c0-1.38.08-2.69.08-4.09v-13c0-12.73,10.84-13.91,14.16-14l2.42,0V139.86h-2.46"/></svg>