<svg id="Logos" xmlns="http://www.w3.org/2000/svg" xmlns:xlink="http://www.w3.org/1999/xlink" viewBox="0 0 634 356"><defs><style>.cls-1{fill:#38414b;}.cls-2{clip-path:url(#clip-path);}.cls-3{opacity:0.25;}.cls-4{opacity:0.3;}</style><clipPath id="clip-path"><path class="cls-1" d="M372.36,272a34.76,34.76,0,0,0,13.87,3c10.88.24,16.84-3.95,21.23-13.72L465.88,131a32.32,32.32,0,0,0-12.11-2.79c-7.51-.16-17.61,1.36-24.06,16.75l-18.93,44.63-37.07-60.43a53.37,53.37,0,0,0-12.52-1.77c-13.14,0-20.45,4.81-28,13.06l-36,39.41,29,45.65c5.38,8.34,12.44,12.57,23.89,12.57a42.81,42.81,0,0,0,16.67-3.12l-34.94-52.64L356.47,156l40.64,63.8Zm-76.65-49.31c0,9.61-3.78,15.15-22.5,15.15a42.77,42.77,0,0,1-6.74-.49V110c0-9.68,3.29-19.78,22.22-19.78a33.42,33.42,0,0,1,7.06.73V222.69ZM257,203.48c0,17.94-11.7,31-35.51,33.58-17.24,1.85-42.17-.33-54-1.68a32.4,32.4,0,0,1-.74-6.24c0-15.64,8.42-19.22,16.34-19.22,8.25,0,21.23,1.44,30.83,1.44,10.68,0,13.88-3.61,13.88-7.06,0-4.48-4.23-6.32-12.48-7.92l-22.58-4.31C174,188.45,164,175.48,164,161.68c0-16.75,11.87-30.75,35.18-33.33,17.62-1.93,39.09.24,50.87,1.68a29.46,29.46,0,0,1,.66,6c0,15.65-8.25,19-16.18,19-6.07,0-15.56-1.11-26.35-1.11-11,0-15.56,3-15.56,6.74,0,3.94,4.31,5.54,11.2,6.73l21.56,4C247.51,175.44,257,188,257,203.48Z"/></clipPath></defs><title>Logos_HSF_Kooperation</title><path class="cls-1" d="M372.36,272a34.76,34.76,0,0,0,13.87,3c10.88.24,16.84-3.95,21.23-13.72L465.88,131a32.32,32.32,0,0,0-12.11-2.79c-7.51-.16-17.61,1.36-24.06,16.75l-18.93,44.63-37.07-60.43a53.37,53.37,0,0,0-12.52-1.77c-13.14,0-20.45,4.81-28,13.06l-36,39.41,29,45.65c5.38,8.34,12.44,12.57,23.89,12.57a42.81,42.81,0,0,0,16.67-3.12l-34.94-52.64L356.47,156l40.64,63.8Zm-76.65-49.31c0,9.61-3.78,15.15-22.5,15.15a42.77,42.77,0,0,1-6.74-.49V110c0-9.68,3.29-19.78,22.22-19.78a33.42,33.42,0,0,1,7.06.73V222.69ZM257,203.48c0,17.94-11.7,31-35.51,33.58-17.24,1.85-42.17-.33-54-1.68a32.4,32.4,0,0,1-.74-6.24c0-15.64,8.42-19.22,16.34-19.22,8.25,0,21.23,1.44,30.83,1.44,10.68,0,13.88-3.61,13.88-7.06,0-4.48-4.23-6.32-12.48-7.92l-22.58-4.31C174,188.45,164,175.48,164,161.68c0-16.75,11.87-30.75,35.18-33.33,17.62-1.93,39.09.24,50.87,1.68a29.46,29.46,0,0,1,.66,6c0,15.65-8.25,19-16.18,19-6.07,0-15.56-1.11-26.35-1.11-11,0-15.56,3-15.56,6.74,0,3.94,4.31,5.54,11.2,6.73l21.56,4C247.51,175.44,257,188,257,203.48Z"/><g class="cls-2"><path class="cls-1" d="M241.72,228.44c-4,2.55-9.77,5.46-24.68,6.49-2.46.16-10.42.12-16.21.08-3.7,0-12.36-.45-18.6-.82-1.27-.08-9.53-.78-10-.82a3.39,3.39,0,0,0-3.73,2.75s.73.2,1.47.37c5.09,1.27,29.07,2.17,30.75,2.21,33.46.87,41.26-6.65,43-7.76,12.69-8,13.51-20.77,13.22-22C256.42,212.59,252.47,221.71,241.72,228.44ZM296,219.7c-.16,2-1.11,6.48-2.79,9-2.3,3.45-4.23,4.43-7.88,5.58-2.67.82-6.08,1-13.8,1-2.54,0-3.77.69-4.35,3.08,9.36.61,15,.69,21.39-1.61a12.35,12.35,0,0,0,6.49-6c1.72-3.41,1.56-9.44,1.43-10.76Zm65.12,14.9c-4.15,1.52-12.4,1.6-14.17,1.35-17.28-2.5-22.54-13.42-25.82-16.79.74,2.47,2.54,7.06,8.7,13.47s14.41,6.69,17.7,7A38.68,38.68,0,0,0,367,236.12S365.25,233.08,361.07,234.6Zm44.71,26.64c-2.06,3.49-6.37,8.91-12.49,10.27-4.27.94-10.26.53-15-.17s-5.09,1.56-6.2,3a43,43,0,0,0,22.7,1c8.5-2.43,12.2-9.78,13.84-13.1s7-18.27,7-18.27S407.83,257.75,405.78,261.24Z"/></g><g id="Layer_3" data-name="Layer 3"><g class="cls-3"><path class="cls-1" d="M252.52,189.64a30.11,30.11,0,0,0-6.33-7.39,40.77,40.77,0,0,0-7.88-5.05,50.08,50.08,0,0,0-10.88-3.61c-2.91-.53-25.49-4.56-30.05-6a10.25,10.25,0,0,1-4.81-3,5.39,5.39,0,0,1-1.27-2.67.83.83,0,0,0-.29-.74,1.8,1.8,0,0,1-.73-1.52c0-2.54,2.42-4.43,2.71-4.68a16.79,16.79,0,0,1,6.52-2.67,52.72,52.72,0,0,1,11.29-.74c3.58,0,13.26.58,13.55.62,4.64.29,9.61.37,10.14.37,5.18,0,7.27-1.23,8.38-2a15.12,15.12,0,0,0,5.17-6.69,22.91,22.91,0,0,0,1.56-8.22c0-1.6-.08-3.2-.08-3.44a3.64,3.64,0,0,1,.08-.82c0-.21-.16-.17-.08-.29s0-.17-.17-.17a8.06,8.06,0,0,1-1.23.09c-1.6-.17-4.92-.5-5.42-.54-5.37-.49-15.39-1.23-19.83-1.43-3.69-.17-10.18-.17-12.48-.13-3.61.08-8.21.37-11.12.74A65,65,0,0,0,189,131.92a44.72,44.72,0,0,0-9.93,4.6,29.42,29.42,0,0,0-12.9,17.94,31.51,31.51,0,0,0-.61,10.26,21.91,21.91,0,0,0,2.13,7.72,35.51,35.51,0,0,0,4.31,6.32,33.32,33.32,0,0,0,9.73,7.19,53,53,0,0,0,9.45,3.08c1.72.37,7.39,1.19,8.21,1.31s7.8.82,8.21.86c1.52.13,3.78.25,6.49.25,3.32,0,18.84-2.38,19.5-2.46s8.25-1.11,8.62-1.19c5.42-1,9,4,9.24,4.22a24.46,24.46,0,0,1,2.62,4.36,15.44,15.44,0,0,0,1.28,2.21,28,28,0,0,1,.65,5.5,29.24,29.24,0,0,0-.37-5.62A24.15,24.15,0,0,0,252.52,189.64Zm-29.81,22.87c-2.51.9-10,1.11-13.63.86-1.89-.12-18.27-1.11-19.79-1.15-4.68-.12-10-.28-14.16,1.93-3.58,1.89-6.53,6.37-6.9,12.61,1.39-5.67,2.79-7.56,5.13-9.73a12.91,12.91,0,0,1,7-3.16,86.84,86.84,0,0,1,13.39-.13c2.5.13,16.46.91,17.4.95a49.06,49.06,0,0,0,9.61-.5c4.89-.9,6.65-2.95,7.18-3.57,1.28-1.48,3-4.1,1.85-6.32C229.69,209.19,225.83,211.4,222.71,212.51ZM294.1,94c0-.78.42-1.68-.49-1.88a50.31,50.31,0,0,0-7.55-.37A21.79,21.79,0,0,0,273,96.2a16.49,16.49,0,0,0-4.64,8.5,51.3,51.3,0,0,0-.61,10.3c0,.7,0,20.49,0,27.26,0,.78.08,37.61.12,43.77,0,1,0,35.76.17,36.74,0-4.1.2-28.36,1-33.66s1.89-5.38,5-5.83,11.21-1.48,13.79-1.77c3.62-.45,4.52-2.71,4.81-5.54.94-10.67,1-22.78,1.19-27.59,0-1.11.2-22.91.24-25.12S294.1,94.8,294.1,94Zm.17,85.36c0-.49-.21-31.12-.21-31.12-.08,1.68,0,25.86,0,26.69v5.91c0,.16.08.16.21.08s.33,0,.24-.21A5.94,5.94,0,0,1,294.27,179.38Zm170-47.91a40.32,40.32,0,0,0-10.68-1.77c-3.08,0-8.17.37-12.48,3a24.63,24.63,0,0,0-5.46,5.17,41.43,41.43,0,0,0-4.51,8.7l-2.06,4.81-3.53,8.17-3,7-3.25,7.39-5.58,13s-1,2.34-1.15,2.75a.72.72,0,0,1-.54.54,1,1,0,0,0,.25-.46c0-.12.21-.36.41-.86s1.93-4.43,1.93-4.43l4.31-10.14-3.45,7.8-2.5,5.66a14.13,14.13,0,0,1-.9,1.56c-.17.17-.62.5-.5.7a1.46,1.46,0,0,1-.78.29c-.61,0-1.11-.16-2.05-1.56-.7-1-1.56-2.38-2.38-3.61-.45-.7-9.81-16-10.35-16.88s-6.52-10.59-7-11.41-9.19-15.11-9.73-16-5.33-8.75-5.54-9.07a3.65,3.65,0,0,0-2.59-1.89,69.92,69.92,0,0,0-10.22-1.07A35.72,35.72,0,0,0,348.3,131a39,39,0,0,0-9.57,5.92c-3.16,2.67-7,6.77-7.84,7.63s-5.25,5.75-7.76,8.5c0,0-14.94,16.3-15.56,17s-8.25,8.78-9,9.85c-.41.62-.12.86.45.9a7.61,7.61,0,0,0,1.73-.2c.49-.12,2.13-.95,3.12-1.32,2.05-.82,11.94-2.05,13.22-2.21s9-1.23,9.36-1.27a19.72,19.72,0,0,0,3.77-.7,17.35,17.35,0,0,0,5.5-3.29c1.69-1.27,5.92-5.38,6.2-5.66.83-.87,6.57-6.49,6.78-6.74,1.35-1.39,4.64-4.31,5.25-4.84a3.65,3.65,0,0,1,2.14-.9,2.22,2.22,0,0,1,1.39.49,3,3,0,0,1,.78,1c.13.16,1.19,1.76,1.52,2.29s4.4,6.24,5,7a33.86,33.86,0,0,0,3,3.54,5.66,5.66,0,0,0,2.34,1.35,10,10,0,0,0,2.71,0c.86-.08,8.41-1.19,9-1.23s5.46-.74,6.4-.9a24.14,24.14,0,0,1,2.92-.21,4.21,4.21,0,0,1,2.3.86,13,13,0,0,1,2.38,2.55c.82,1,2.91,4.23,3.08,4.52.7,1.06,5,7.67,5.29,8.17s3.74,5.78,4,6.11a14.08,14.08,0,0,0,1.31,1.73,1.72,1.72,0,0,0,1.23.53,2,2,0,0,0,1.44-.45,4.91,4.91,0,0,0,1.11-1.85c.9-2.26,3.9-9,4-9.28,1.15-2.62,3.74-8.21,4.15-9,1.43-3,2.71-5.09,2.87-5.38a10.45,10.45,0,0,1,2.75-3.12,7.7,7.7,0,0,1,3.53-.94l7.27-1s7.43-1,8.42-1.15a7.81,7.81,0,0,0,2.5-.86,10.09,10.09,0,0,0,1.93-1.89,40.4,40.4,0,0,0,2.87-4.68c.37-.74,2.92-5.7,3.25-6.36s4.14-8.54,4.23-8.7c.94-2,1.76-3.58,1.88-3.82a2.3,2.3,0,0,1,1.19-1.19C464.57,131.8,464.48,131.55,464.24,131.47ZM363.9,233.9c-.21-.25-5.83-8.74-6.32-9.44s-7.68-11.37-7.93-11.7c-3.2-4.52-11.94-17.9-12.4-18.52s-5.95-9.24-6-9.44c-.7-1.23-1-1.81-1-2.14-.73,0-1.1,0-1.23.46s.41,1,1.11,2c.49.74,3.94,5.91,4.72,7s5,7.27,6,8.7c.61.91,5.66,8.09,6.32,9.08s4.19,5.95,4.92,7,8.79,13,9,13.34,1.64,2.46,2,3a3.35,3.35,0,0,0,.9.94c.17.08.21.16.21.29C364.51,234.39,364.1,234.23,363.9,233.9Zm34.9-13.14c-.25-.08-.29,0-.33.13s-.21.74-.33,1.06-2.34,5.09-2.51,5.42-2.7,5.83-2.95,6.28-2.92,6.2-3.12,6.61-2.83,6-3,6.37-2.79,6-3,6.36l-3.49,7.31c-.24.53-1.92,4-2.09,4.39s-1.68,3.45-1.89,3.9-1.06,2.18-1.15,2.34a.62.62,0,0,0,0,.45,3.68,3.68,0,0,0,.58-.9c.16-.37,3.94-8,4.14-8.46s4.72-9.81,4.85-10l4.14-8.79c.78-1.68,5.46-11.58,5.75-12.15s2.47-5.09,2.59-5.42c.33-.7,1.64-3.12,1.89-3.53s.57-1.07.24-1.56A.21.21,0,0,1,398.8,220.76Z"/></g></g><g id="Layer_5" data-name="Layer 5"><path class="cls-1" d="M244.92,130.56c-4.76-.73-12.81-1.35-15.15-1.51-5.38-.37-10.3-.42-12.52-.33s-.17.24.25.28c1.68.13,16.25,1.19,20.81,1.65A53.94,53.94,0,0,0,245,131C245.7,130.93,246.11,130.77,244.92,130.56Zm4.11.13c-.58.16-.37.28.16.08C249.44,130.69,249.56,130.48,249,130.69Zm-18.68,42.94c-3.82-1.11-18.23-3.73-20.49-4.1s-9.57-1.89-11.21-2.34c-4.1-1-1.07.53-.2.78a124.77,124.77,0,0,0,15.35,3.32c8.09,1.36,14.7,2.55,16.38,2.87S233.1,174.41,230.35,173.63Zm-2.47,26.73c-.45.16-.29.61.08,1.27s.58.9.83.78.61-.45.24-1.23C229,200.93,228.33,200.24,227.88,200.36Zm-18.43,11.9c-1.07,0-7.76-.32-10.06-.53-1.68-.16-6.73-.49-10.14-.62s-2.67.42.41.54c1.23.08,13.67.94,14.57,1s4.93.13,6,.09C212.86,212.67,212.4,212.43,209.45,212.26Zm84.7-120.9c-.37,0-3.9.16-4.68.16a24.7,24.7,0,0,0-2.92.16c-.82.13-.78.25,0,.33s2.63,0,2.87,0a42.1,42.1,0,0,0,4.85-.53C294.68,91.4,295.09,91.19,294.15,91.36Zm.73,0c-.08.08,0,.12.09,0S294.93,91.32,294.88,91.4Zm14.29,104.11c-.24-.41-5.58-9.15-5.95-9.69s-3.08-4.68-3.16-4.8a2.36,2.36,0,0,0-1.52-1c-.7-.21-.17.28.33.65a10.2,10.2,0,0,1,1.64,2.06c.2.28,3.82,6.15,4,6.4s4.07,6.4,4.27,6.77,2.14,3.33,2.38,3.7,1.89,3,2.18,3.37,1.11,1.72,1.64,2.46.21.12.17,0C314.84,205,309.42,195.92,309.17,195.51Zm58.1-66.18c.9,0,.73-.12,0-.24a48.7,48.7,0,0,0-7.6-.78,29.15,29.15,0,0,0-6.49.65c-1.6.41-.36.41.33.33s5.63-.24,6.2-.24C362.46,129.09,366.36,129.33,367.27,129.33Zm5.37,2s.13.21.25.17.12-.45.08-.58c-.08-.32-.08-.82-.33-.82s-.41.5-.37.78A.55.55,0,0,0,372.64,131.34Zm-3.65,42c-.86-1.43-7.43-11.86-7.88-12.52s-2.51-4.1-2.79-4.47c-.46-.58-1.11-.7-.58.37.16.32,1.44,2.38,1.77,2.83s3.77,5.91,4.1,6.36,4.23,6.57,4.52,7,3.41,5.22,3.77,5.71,1.73,2.63,2.18,3.28.45.62.08-.08S369.61,174.41,369,173.34ZM363,231.6c-.37-.45-.45-.37-.09.12a23.33,23.33,0,0,0,1.85,1.93c.33.33.62.5.08,0C364.76,233.45,363.37,231.89,363,231.6ZM397,216.86c-.25.21.2,1.15.37,1.44.24.45.61,1.11,1,.82s0-1.27-.08-1.48C397.77,216.78,397.19,216.66,397,216.86Zm12.6-27.26a.38.38,0,0,0-.61.12c-.13.33,0,.83.33.83a.9.9,0,0,0,.65-.54A.47.47,0,0,0,409.55,189.6Zm1.11.74c-.16,0-.37.29-.37.53s0,.29.25.33.41-.12.41-.33S410.83,190.34,410.66,190.34Zm40.73-61a20.69,20.69,0,0,0-4,.25,16.83,16.83,0,0,0-3.12.78c-.7.29-.37.37.16.33.33,0,2.55-.29,3.12-.37l3.86-.54C452,129.7,452.58,129.46,451.39,129.33Zm13.26,1.93c-.21,0-.17.17.08.08S464.77,131.26,464.65,131.26ZM168.27,173.67c-.37-.49-.7-.61-.53.13a16.76,16.76,0,0,0,1.72,3.44,15.43,15.43,0,0,0,3,3.29c.49.33.57.12.29-.33C171.14,177.53,168.52,174,168.27,173.67Z"/></g><g id="Layer_6" data-name="Layer 6"><g class="cls-4"><path class="cls-1" d="M194.5,155.36c-.57.33-.9,1-.69,1.19s1.1-.49,1.64-.86c.24-.16.94-.62.82-.78S195.33,154.87,194.5,155.36ZM243,152.82c.9-.5,1.68-1.24,1.48-1.32s-1.4.54-2,.82-1.64.87-1.52,1.07S242.5,153.1,243,152.82Zm3,73.81c-.37.21-2.67,1.77-3.57,2.34s-3,1.89-3.49,2.3-.66.62.28.25,3.29-1.72,3.62-1.93a32.52,32.52,0,0,0,3.61-2.87C247.34,225.77,246.36,226.39,246,226.63Zm43.52,7.6c-.29.08-1.07.37-1.65.61a16.81,16.81,0,0,0-1.72.74c-.53.29-.12.25.16.21a11.07,11.07,0,0,0,1.77-.49,7.91,7.91,0,0,0,1.72-.91C290.12,234.06,289.75,234.15,289.51,234.23Zm67.86,2.22c-.45,0-2.46.2-4.31.32-1.23.09-3.16.17-4,.25s-1.15.12-.45.25a41.41,41.41,0,0,0,4.51.08,40,40,0,0,0,4.35-.66C359.05,236.32,357.78,236.41,357.37,236.45Zm-.78-81.17c0-.29-.16-.53-.25,0S356.55,155.81,356.59,155.28Zm28.53,118.49c-1.93-.17-6.15-.91-7.84-1.24a29.33,29.33,0,0,0-3.49-.53c-.65,0-.86,0,0,.12s4.35,1.15,6.16,1.52a27,27,0,0,0,5.3.49C386.23,274.09,386.48,273.89,385.12,273.77Z"/></g></g></svg>