<svg id="Logos" xmlns="http://www.w3.org/2000/svg" viewBox="0 0 634 356"><defs><style>.cls-1{fill:#38414b;}.cls-2{fill:#fff;}</style></defs><title>Logos_HSF_Kooperation</title><path id="path2567" class="cls-1" d="M464.31,243.23l-1.36.58c-5.45,2.09-21.36,3.77-31.52,3.77-9.53,0-22.25-3.56-29.64-13.46-2.82-3.82-5.55-9.79-5.6-18.22h-9.63l-7.39,29.64H354.12l8.81-29.64h-8l-19.12,29.64H315.7l-1.8-29.64H305l-8.76,29.64H274.8l9.09-29.64H233.38v-.47l-9,30.16H201.51l9-29.69H182.55l13.88,29.69H170L158,215.9h-7.15c-4.47,14.61-8,26.34-8.26,27.28l-.47,2.41H117.59l22.49-74.82V97.1h84.28v72.78l3.21-10.73h5.81V97.1h84.09v62.05h9V97.1h84.09v78.43a44.36,44.36,0,0,1,9.06-9.37V97.1h84V215.9H472ZM419.75,215.9c.05,3.82.79,7.07,2.46,9.22,2.41,3.24,6.65,4.81,12.67,4.81,6.71,0,9.22-.73,10.06-1l4.13-13H419.75"/><path id="path2569" class="cls-2" d="M267.59,186.42c-2.72,8.17-6.41,12.36-18.5,12.62-4,.06-8.39,0-14.36,0l7.37-25.29C260.24,173.7,272.31,172.24,267.59,186.42ZM164,162.18H145.77l-24.12,80.37h18C140,240.88,164,162.18,164,162.18Zm47.29,0H189.13l-35.21,35.5v0h0l18.13,44.87h19.62l-20.23-43.19Zm73,24.24c4.58-24.76-15.39-24.45-33.92-24.24h-20.5l-24.24,80.37h16.54l9.49-31.78h13.24C270.51,210.82,281.85,199.41,284.23,186.42Zm112.59-24.24H370.43c-32.11,44.51-39.86,69.48-39.86,69.48,3.07-28.27-.94-69.48-.94-69.48H303.5L278.89,242.5H294l20.37-68.8,4.15,68.8h15.65l44.42-68.8-20.41,68.8h18.58Zm52.36-1.73c-16.18,0-36.23,3.62-47.75,41.58-9.69,31.73,13.77,42.56,30,42.56,10.68,0,25.86-1.83,30.37-3.61l11.41-40.58H439.12l-3.77,12.15h17.91l-5.55,17.59s.73,2.78-12.77,2.83c-17.07.05-21.78-11.83-16.18-31.36,5.18-18.17,13.51-30.26,28.79-29.53,10.42.47,16.29,4.34,13.41,13.93a10.94,10.94,0,0,1-.53,2l16.55.05c4.19-12.31-4.19-27.6-27.8-27.6"/></svg>