<svg id="Logos" xmlns="http://www.w3.org/2000/svg" viewBox="0 0 1028.33 356"><defs><style>.cls-1{fill:#38414b;}</style></defs><title>Zeichenfläche 1</title><g id="layer1"><g id="g3359"><g id="g3371"><path id="path3356" class="cls-1" d="M875.75,233.06a20.49,20.49,0,1,1,20.49,20.49,20.5,20.5,0,0,1-20.49-20.49"/><path id="path3360" class="cls-1" d="M222.29,178.8q0-19.47-7.52-28.88t-22.86-9.4H181v79.37h8.33q17,0,25-10.13t7.95-31m38.8-1.35q0,35.46-19.07,54.65t-53.61,19.19H143.65V109.61h47.88q33.32,0,51.44,17.44t18.12,50.4"/><path id="path3362" class="cls-1" d="M385.06,251.29h35.62V109H385.06Z"/><path id="path3366" class="cls-1" d="M470.71,198.22q0,13.6,3.55,20.75t11.93,7.13q8.3,0,11.71-7.13t3.41-20.75q0-13.53-3.46-20.42T486,170.88c-5.47,0-9.38,2.3-11.75,6.86s-3.55,11.4-3.55,20.48m66.85,0q0,25.92-13.62,40.43t-38.11,14.51q-23.5,0-37.39-14.84t-13.9-40.1q0-25.84,13.62-40.16t38.22-14.32q15.19,0,26.86,6.63a44.77,44.77,0,0,1,18,19q6.33,12.35,6.33,28.87"/><path id="path3370" class="cls-1" d="M551.7,251.29h35.62V145.61H551.7Z"/><path id="path3372" class="cls-1" d="M551.7,132.83h35.62V109H551.7Z"/><path id="path3376" class="cls-1" d="M659.48,224.33q7.21,0,17.22-3.64v26.59A69.18,69.18,0,0,1,663,251.8a76,76,0,0,1-15.26,1.35q-17.93,0-25.87-9T614,216.5V172.94H601.47V145.62H614v-27l35.89-6.24v33.23h22.72v27.32H649.84v41.13q0,10.26,9.64,10.26"/><path id="path3380" class="cls-1" d="M741.92,224.33q7.22,0,17.22-3.64v26.59a69.18,69.18,0,0,1-13.71,4.52,75.88,75.88,0,0,1-15.26,1.35q-17.94,0-25.86-9t-7.93-27.65V172.94H683.9V145.62h12.48v-27.4l35.89-5.83v33.23H755v27.32H732.27v41.13q0,10.26,9.65,10.26"/><path id="path3384" class="cls-1" d="M804.08,185.35q.74-8.68,5-12.74a14.63,14.63,0,0,1,10.51-4.05c4.57,0,8.2,1.51,10.89,4.57s4.12,7.12,4.23,12.22Zm50.23-29.15q-12.69-12.45-36-12.46-24.51,0-37.72,14.32t-13.21,41.09q0,25.92,14.26,40t40,14A117,117,0,0,0,843,251.47a61.63,61.63,0,0,0,17.2-6l-5.48-23.81a74.85,74.85,0,0,1-11.51,3.75,76.08,76.08,0,0,1-17.25,1.83q-10.29,0-16.26-5t-6.33-13.9H867V192.06q0-23.42-12.71-35.86"/><path id="path3388" class="cls-1" d="M308.36,185.35q.72-8.68,5-12.74a14.64,14.64,0,0,1,10.52-4.05c4.56,0,8.19,1.51,10.88,4.57s4.12,7.12,4.24,12.22Zm50.23-29.15q-12.7-12.45-36-12.46-24.51,0-37.71,14.32t-13.21,41.09q0,25.92,14.26,40t40,14a116.87,116.87,0,0,0,21.31-1.68,61.58,61.58,0,0,0,17.21-6L359,221.65a75.1,75.1,0,0,1-11.5,3.75,76.29,76.29,0,0,1-17.26,1.83q-10.29,0-16.26-5t-6.33-13.9h63.66V192.06q0-23.42-12.7-35.86"/></g></g></g></svg>