<svg id="Logos" xmlns="http://www.w3.org/2000/svg" viewBox="0 0 634 356"><defs><style>.cls-1{fill:#38414b;}.cls-2{fill:none;}</style></defs><title>Logos_HSF_Kooperation</title><polygon class="cls-1" points="498 119.2 438.91 119.2 442.55 109.01 498 109.01 498 119.2 498 119.2"/><path class="cls-1" d="M340.47,109h54.87l3.59,10.21s-58.44,0-58.44,0,0-10.2,0-10.2Z"/><path class="cls-1" d="M296.9,109a39.47,39.47,0,0,1,23.6,10.2s-99.45,0-99.45,0V109Z"/><polygon class="cls-1" points="143.01 109.01 212.1 109.01 212.1 119.19 143.01 119.19 143.01 109.01 143.01 109.01"/><path class="cls-1" d="M498,138.31H432.13s3.6-10.13,3.58-10.14H498v10.14Z"/><polygon class="cls-1" points="405.72 138.32 340.47 138.32 340.47 128.17 402.14 128.17 405.72 138.32 405.72 138.32"/><path class="cls-1" d="M328.24,128.17c1.31,3.35,2.86,6.21,2.86,10.14h-110V128.17Z"/><polygon class="cls-1" points="143.01 128.17 212.1 128.17 212.1 138.31 143.01 138.31 143.01 128.17 143.01 128.17"/><polygon class="cls-1" points="425.4 157.47 429.02 147.29 478.47 147.31 478.47 157.45 425.4 157.47 425.4 157.47"/><polygon class="cls-1" points="408.89 147.29 412.49 157.47 359.92 157.47 359.92 147.29 408.89 147.29 408.89 147.29"/><path class="cls-1" d="M332,147.28a33.2,33.2,0,0,1-1.46,10.2H300.39v-10.2Z"/><polygon class="cls-1" points="162.26 147.33 191.96 147.33 191.96 157.47 162.26 157.47 162.26 147.33 162.26 147.33"/><polygon class="cls-1" points="241.06 147.28 270.7 147.28 270.7 157.47 241.06 157.47 241.06 147.28 241.06 147.28"/><path class="cls-1" d="M389.12,168.48v7.72H359.92V166.06h55.65l3.46,9.46s3.33-9.48,3.34-9.46h56.08V176.2H449.39l0-7.72-2.68,7.72H391.81l-2.69-7.71Z"/><path class="cls-1" d="M241.06,166.06h85.09a38.19,38.19,0,0,1-8.44,10.14s-76.66,0-76.66,0,0-10.12,0-10.14Z"/><polygon class="cls-1" points="162.26 166.06 191.96 166.06 191.96 176.2 162.26 176.2 162.26 166.06 162.26 166.06"/><polygon class="cls-1" points="449.39 185.18 478.45 185.18 478.45 195.32 449.39 195.32 449.39 185.18 449.39 185.18"/><path class="cls-1" d="M389.12,185.18h-29.2v10.14h29.21s0-10.14,0-10.14Z"/><path class="cls-1" d="M443.52,185.18c-.13,0-3.4,10.13-3.54,10.14l-41.39,0S395,185.16,395,185.18Z"/><path class="cls-1" d="M241.05,185.18h76.52a50,50,0,0,1,9.12,10.14H241.05V185.18Z"/><path class="cls-1" d="M192,195.32V185.18H162.31s0,10.13,0,10.13Z"/><polygon class="cls-1" points="449.39 204.3 478.45 204.3 478.45 214.44 449.39 214.44 449.39 204.3 449.39 204.3"/><polygon class="cls-1" points="359.92 204.3 389.12 204.3 389.12 214.44 359.92 214.44 359.92 204.3 359.92 204.3"/><path class="cls-1" d="M433.18,214.49c0-.05,3.59-10.2,3.64-10.19H401.64c-.07,0,3.6,10.14,3.6,10.14s27.94.09,27.94.05Z"/><path class="cls-1" d="M241.05,214.43V204.29h30.09s0,10.15,0,10.15-30.09,0-30.09,0Z"/><path class="cls-1" d="M330.91,204.29c1.45,3.06,1.6,6.7,1.89,10.19H300.93V204.29Z"/><polygon class="cls-1" points="162.31 204.29 191.96 204.29 191.96 214.43 162.31 214.43 162.31 204.29 162.31 204.29"/><polygon class="cls-1" points="449.39 223.02 498 223.02 498 233.16 449.39 233.16 449.39 223.02 449.39 223.02"/><polygon class="cls-1" points="340.47 223.02 389.12 223.02 389.12 233.16 340.47 233.16 340.47 223.02 340.47 223.02"/><polygon class="cls-1" points="426.65 233.16 411.8 233.16 408.24 223.02 430.08 223.02 426.65 233.16 426.65 233.16"/><path class="cls-1" d="M143,223v10.14h69S212,223,212,223Z"/><rect class="cls-2" x="143" y="109" width="355" height="143.33"/><path class="cls-1" d="M331.54,223c-.73,3.35-1.39,7.42-3.84,10.14H221.06V223Z"/><polygon class="cls-1" points="419.92 252.3 418.55 252.3 415.08 242.14 423.48 242.14 419.92 252.3 419.92 252.3"/><polygon class="cls-1" points="449.39 242.14 498 242.14 498 252.32 449.39 252.32 449.39 242.14 449.39 242.14"/><path class="cls-1" d="M221.05,252.3V242.15l100,0a37.87,37.87,0,0,1-25.78,10.15l-74.24,0"/><polygon class="cls-1" points="340.47 242.14 389.12 242.14 389.12 252.32 340.47 252.32 340.47 242.14 340.47 242.14"/><path class="cls-1" d="M212,242.18s0,10.12,0,10.12-69,0-69,0,0-10.17,0-10.17,69,.06,69,0Z"/></svg>