<svg id="Logos" xmlns="http://www.w3.org/2000/svg" viewBox="0 0 634 356"><defs><style>.cls-1{fill:#38414b;}</style></defs><title>Logos_HSF_Kooperation</title><path id="path3491" class="cls-1" d="M358.74,223.8h28.45V187.42h2.17c3.24,0,11.4-.18,15.84,7l17.48,29.38h30.6l-15.92-26.75c-5.26-9-9.58-13.77-13-16.23v-.3c9.59-3.4,20.09-11.61,20.09-28.32,0-20.7-14.83-31.38-41.11-31.38H358.74v35.75h-.28c-5.4-21.57-23.59-35.75-56.82-35.75H238.73l-9.58,42.05c-2,8.66-3.72,19.65-3.72,19.65h-.3S223,170.31,221,161.63l-8.2-40.81H178.22L170,161.63c-2,8.68-4.17,20.89-4.17,20.89h-.31s-1.7-11-3.71-19.65l-9.59-42.05H121l27.52,103h31.41l15.62-66h.31l15.61,66h30.92l22.91-85.5h.3v85.5h35.12c33.69,0,52.28-15.46,57.75-37.55h.27V223.8ZM303,200.45h-8.65V144.17h7.88c18.87,0,27.37,8.35,27.37,27.53,0,18.85-8.5,28.75-26.6,28.75m99.71-34.79H387.19v-23H401.8c9.75,0,13.77,3.85,13.77,11.58,0,7.12-4.17,11.45-12.83,11.45"/><path id="path3495" class="cls-1" d="M494.23,148V121.45L467.68,131v6.6l8.79-3.19v19.94Zm-10.6-37.24a26.51,26.51,0,1,1-26.36,26.51,26.44,26.44,0,0,1,26.36-26.51m0,3.89a22.62,22.62,0,1,0,22.51,22.62,22.55,22.55,0,0,0-22.51-22.62"/></svg>