<svg id="Logos" xmlns="http://www.w3.org/2000/svg" viewBox="0 0 634 356"><defs><style>.cls-1,.cls-2{fill:#38414b;}.cls-1{stroke:#38414b;stroke-miterlimit:3.86;stroke-width:4.55px;}</style></defs><title>Logos_HSF_Kooperation</title><path id="path56" class="cls-1" d="M325.66,146.31h61.68m-30.79-30.39V177"/><path id="path58" class="cls-1" d="M273.17,169.34c20.89,1.83,24.12,1.72,24.12,7.14h0v35.14c0,7.53.71,26.42-28.21,27.23-39.94,1.11-36.39-63.78-36.39-63.78s-.4-72.5,36.69-72.7c33.73-.15,50.46,46.06,50.46,58.24V102.82s-9.6,20.38-12.94,20.38c-2,0-14.06-20.78-37.52-20.78s-60.45,23.91-60.45,72.65c0,49,34,63.19,59.74,63.78,23.82.54,29.13-18.42,41-18.42,11.38,0,12.29,18.78,12.29,19.95V176.51c0-5.38,3.59-5.39,23.86-7.17Z"/><path id="path60" class="cls-2" d="M361.81,101.31l-.08,2.22h.08l19.35,1.21h0c5.47.05,7.63,1.94,8.66,3.71a6.48,6.48,0,0,1,.87,3.51v.12l0,103.62a34.92,34.92,0,0,1-2.32,11.16,19,19,0,0,1-5.15,7.52,14.57,14.57,0,0,1-9.62,3.33h-.25c-.32,0-.66,0-1-.05s-.81,0-1.21-.08a25.91,25.91,0,0,1-4.55-1c-.55-.17-1.12-.37-1.67-.58a25.31,25.31,0,0,1-9.92-7.62,27.29,27.29,0,0,1-4.41-7.74,14.74,14.74,0,0,1-.89-4.35,15.16,15.16,0,0,0,10,3.27,14.71,14.71,0,0,0,15.53-15.52,15.28,15.28,0,0,0-15.62-15.65,17.12,17.12,0,0,0-12.2,4.58c-3.31,3.22-5.4,8.27-5.4,15.34v2.49l.19-.17a30.53,30.53,0,0,0,11,21.09,35.85,35.85,0,0,0,13.05,7.09c.69.21,1.39.38,2.11.53l.28.06c.71.14,1.42.26,2.16.34s1.21.1,1.8.12c.26,0,.51.05.77.05l.21,0c9,0,19.43-1.9,27.76-6.75s14.66-12.95,14.66-24.85V112a6.3,6.3,0,0,1,.91-3.44c1.05-1.74,3.24-3.6,8.66-3.65h.08l17.12-1.41H443l-.1-2.21H361.81Z"/></svg>